<svg id="Layer_1" data-name="Layer 1" xmlns="http://www.w3.org/2000/svg" xmlns:xlink="http://www.w3.org/1999/xlink" viewBox="0 0 344.8 310.38" width="406" height="306" class="illustration styles_illustrationTablet__1DWOa"><defs><linearGradient id="linear-gradient" x1="209.5" y1="316.63" x2="203.59" y2="64.92" gradientTransform="matrix(1, 0, 0, -1, -38.7, 341.8)" gradientUnits="userSpaceOnUse"><stop offset="0.01"></stop><stop offset="0.08" stop-opacity="0.69"></stop><stop offset="0.21" stop-opacity="0.32"></stop><stop offset="1" stop-opacity="0"></stop></linearGradient><linearGradient id="linear-gradient-2" x1="-2957.44" y1="672.97" x2="-2838.25" y2="667.7" gradientTransform="matrix(-1, 0, 0, 1, -2671.81, -468.99)" xlink:href="#linear-gradient"></linearGradient><linearGradient id="linear-gradient-3" x1="173.97" y1="180.93" x2="108.65" y2="201.49" gradientTransform="matrix(1, 0, 0, -1, 0, 352)" xlink:href="#linear-gradient"></linearGradient><linearGradient id="linear-gradient-4" x1="-743.12" y1="171.74" x2="-731.16" y2="171.74" gradientTransform="translate(-546.93 352) rotate(180)" gradientUnits="userSpaceOnUse"><stop offset="0" stop-color="#e5c5d5"></stop><stop offset="0.42" stop-color="#ead4d1"></stop><stop offset="1" stop-color="#f0e9cb"></stop></linearGradient><linearGradient id="linear-gradient-5" x1="486.99" y1="169.46" x2="509.86" y2="102.27" gradientTransform="matrix(1, 0, 0, -1, -281.03, 352)" gradientUnits="userSpaceOnUse"><stop offset="0" stop-opacity="0"></stop><stop offset="0.99"></stop></linearGradient><linearGradient id="linear-gradient-6" x1="-902.02" y1="1403.59" x2="-889.1" y2="1403.59" gradientTransform="translate(1112.04 -1243.47)" xlink:href="#linear-gradient-4"></linearGradient><linearGradient id="linear-gradient-7" x1="-1953.85" y1="118.92" x2="-1888.34" y2="184.43" gradientTransform="translate(-1685.23 352) rotate(180)" xlink:href="#linear-gradient"></linearGradient><linearGradient id="linear-gradient-8" x1="211.86" y1="148.34" x2="261.87" y2="148.34" gradientTransform="matrix(1, 0, 0, -1, 0, 352)" xlink:href="#linear-gradient"></linearGradient><linearGradient id="linear-gradient-9" x1="174.2" y1="167.63" x2="183.57" y2="167.63" gradientTransform="matrix(1, 0, 0, -1, 0, 352)" xlink:href="#linear-gradient-4"></linearGradient><linearGradient id="linear-gradient-10" x1="-1854.55" y1="164.4" x2="-1834.4" y2="105.2" gradientTransform="translate(-1679.61 352) rotate(180)" xlink:href="#linear-gradient-4"></linearGradient><linearGradient id="linear-gradient-11" x1="164.45" y1="132.49" x2="185.62" y2="108.49" gradientTransform="matrix(1, 0, 0, -1, 0, 352)" xlink:href="#linear-gradient-4"></linearGradient><linearGradient id="linear-gradient-12" x1="139.63" y1="132.48" x2="175.14" y2="155.99" gradientTransform="matrix(1, 0, 0, -1, 0, 352)" xlink:href="#linear-gradient"></linearGradient><linearGradient id="linear-gradient-13" x1="-3234.06" y1="1403.6" x2="-3223.35" y2="1403.6" gradientTransform="matrix(-1, 0, 0, 1, -3072.68, -1243.47)" xlink:href="#linear-gradient-4"></linearGradient><linearGradient id="linear-gradient-14" x1="387.38" y1="130.26" x2="442.92" y2="185.8" gradientTransform="matrix(1, 0, 0, -1, -275.41, 352)" xlink:href="#linear-gradient"></linearGradient></defs><title>14</title><path d="M376.59,221.26c-2.56,10.08-7,20.15-10.89,29.13-6.48,14.87-14.44,29.64-26.9,40-24.64,20.53-59.94,19.32-91.7,23.76-39.54,5.53-80.48,11.61-119.62-1-28.17-9.11-54-29-64.39-56.76-5.08-13.54-6.31-28.18-7.5-42.6-1.28-15.52-2.11-30.34-6.25-45.22-4.43-15.92-9-32.5-10.33-49-2.34-30,8.74-60.91,30.25-81.9s53.2-31.33,82.8-26.15c22.09,3.87,41.88,15.6,61.37,26.7,13.24,7.55,27.22,15.08,42.45,15.67,20.08.77,39.36-10.69,59.36-8.76,24.74,2.39,42.88,24.3,54.45,46.31A134.7,134.7,0,0,1,379,112.86a95.83,95.83,0,0,1,2.84,46.77c-3,16-2.64,31-3.1,47.4A65.81,65.81,0,0,1,376.59,221.26Z" transform="translate(-38.7 -10.2)" fill="#1e3a8a" opacity="0.18" style="isolation: isolate;"></path><ellipse cx="165.98" cy="230.5" rx="105.31" ry="20.47" fill="url(#linear-gradient)"></ellipse><path d="M276.92,201.68l9.16,34.4a1.32,1.32,0,0,1-.95,1.61,1.12,1.12,0,0,1-.32,0h0a1.3,1.3,0,0,1-1.27-1l-9.17-34.39a1.33,1.33,0,0,1,.95-1.62h0a1.3,1.3,0,0,1,1.59.92Z" transform="translate(-38.7 -10.2)" fill="#1e3a8a"></path><path d="M260,201.67l-6.76,34.16a1.41,1.41,0,0,0,1.16,1.62l.22,0h0a1.23,1.23,0,0,0,1.21-1l6.77-34.15a1.41,1.41,0,0,0-1.06-1.61h0a1.24,1.24,0,0,0-1.52.85S260,201.63,260,201.67Z" transform="translate(-38.7 -10.2)" fill="#1e3a8a"></path><path d="M270.78,201.81l5.88,34.27a1.45,1.45,0,0,1-1.24,1.64h-.18a1.18,1.18,0,0,1-1.18-1l-5.9-34.27a1.46,1.46,0,0,1,1.1-1.61h0a1.19,1.19,0,0,1,1.48.8A.75.75,0,0,1,270.78,201.81Z" transform="translate(-38.7 -10.2)" fill="#1e3a8a"></path><path d="M253.35,202l-12,34.12a1.21,1.21,0,0,0,.68,1.56,1.33,1.33,0,0,0,.45.08h0a1.44,1.44,0,0,0,1.35-1l12-34.11a1.19,1.19,0,0,0-.66-1.55l-.15,0h0A1.44,1.44,0,0,0,253.35,202Z" transform="translate(-38.7 -10.2)" fill="#1e3a8a"></path><path d="M258.47,175.59c3-5.29,7.07-10.52,12.89-12.27,3.59-1.09,7.46-.71,11.16-.08a21.33,21.33,0,0,1,7.92,2.61,8.74,8.74,0,0,1,4.35,6.79,13.38,13.38,0,0,1-1,4.71l-5.48,15.77c-.72,2.07-1.5,4.24-3.15,5.69a12.88,12.88,0,0,1-5.56,2.37c-6.53,1.63-13.11,3.26-19.83,3.46s-13.68-1.16-19.17-5c-2-1.38-3.84-3.81-2.78-6,.83-1.65,3-2.09,4.84-2,4.85.2,6.26-.36,9.12-4.33C254.39,183.64,256.26,179.5,258.47,175.59Z" transform="translate(-38.7 -10.2)" fill="#505365"></path><path d="M254.69,170.22a9,9,0,0,1-2.54,2.82L239.3,183.75c-1.19,1-2.51,2.29-2.27,3.83a.73.73,0,0,0,.18.42.89.89,0,0,0,.67.18,18.1,18.1,0,0,0,3.88-.51c1.34-.33,2.84-1,3.11-2.39.07-.38,0-.77.1-1.15a3.46,3.46,0,0,1,1.74-2.13c1-.67,1.89-1.44,2.85-2.12,1.89-1.36,3.85-2.63,5.86-3.81,1.41-.83,3.61-1.8,4.45-3.29s.14-3.69-.37-5.21c-.34-1-.77-1.14-1.78-1.28s-2.05-.45-2.39.67S255.19,169.15,254.69,170.22Z" transform="translate(-38.7 -10.2)" fill="#ec9c7d"></path><path d="M276.23,163.46c-2.22,1.28-4.09-.05-4.67-2.34-.24-1-.34-2.08-.67-3.11a15.4,15.4,0,0,0-2-3.59,10.1,10.1,0,0,1-1.77-3.71,3.9,3.9,0,0,1,1.2-3.76,1.19,1.19,0,0,1,.88-.31c.51.05.78.63.9,1.15a6.85,6.85,0,0,0,.24,1.55,3,3,0,0,0,1.83,1.39c1.73.71,3.59,1.34,4.8,2.75a6.54,6.54,0,0,1,1.38,4.61C278.25,159.72,277.77,162.59,276.23,163.46Z" transform="translate(-38.7 -10.2)" fill="#2f3554"></path><path d="M253.3,174.16l-.71,3.27a3.7,3.7,0,0,0-.13,1.48,3.49,3.49,0,0,0,.93,1.61c3.32,3.8,6.24,4.12,11.15,3.71a34.68,34.68,0,0,0,8.43-1.71c-.4-4.19,0-9.92.78-11.69,2.06-4.75,4.6-11.05,1.65-14.64-2.39-2.9-6.75-2.62-9.41-2.54-2,0-4.31-.72-6.15.23s-3.17,3.19-4,4.83a29.5,29.5,0,0,0-1.35,3.11,1.12,1.12,0,0,0-.1.4.94.94,0,0,0,.23.52l1.19,1.74C254.12,166.94,253.93,171.29,253.3,174.16Z" transform="translate(-38.7 -10.2)" fill="#fff"></path><path d="M264.36,136.8a2.35,2.35,0,0,0-.8.59,9.59,9.59,0,0,0-1.18,3l-1.55,4.4s-5.08.09-4-5c.55-2.68,2.24-5.18,5.18-5.44a7.91,7.91,0,0,1,2,.28,6.57,6.57,0,0,0,2.34,0c.3-.06.66-.13.88.08a.6.6,0,0,1,.06.72,1.53,1.53,0,0,1-.58.49C266,136.27,265.1,136.43,264.36,136.8Z" transform="translate(-38.7 -10.2)" fill="#2f3554"></path><path d="M268.51,136.07s-8.5-2.39-9.89,3.57a15.83,15.83,0,0,0-.43,3.76v1.29c.39,3.9,2.34,6.86,5.5,6.59C269.26,150.83,275.16,139.05,268.51,136.07Z" transform="translate(-38.7 -10.2)" fill="#ec9c7d"></path><path d="M267.51,147.21a.55.55,0,0,0,.77,0h0a7,7,0,0,0-1.13,3.12c-.43,3.21,1.13,3.35,1.13,3.35-5.79,3.24-6.65,1-6.65,1a3.41,3.41,0,0,0,.21-3.62c2.63.72,5-2.38,5.45-4.14A.58.58,0,0,0,267.51,147.21Z" transform="translate(-38.7 -10.2)" fill="#d68369"></path><path d="M262.41,135.19c.45-.16.88-.08,1.33-.2a6.23,6.23,0,0,0,1.39-.75,6.42,6.42,0,0,1,3.72-.49,7,7,0,0,1,2.84.78,5.39,5.39,0,0,1,2.47,4,8.56,8.56,0,0,1-1,4.73,3.13,3.13,0,0,0-.32.78c-.19,1.11,1,1.91,1.46,3a12.66,12.66,0,0,1,.36,2.3c.35,1.61,1.8,2.71,2.77,4a5.45,5.45,0,0,1,1.13,3.89c-2.87-1.1-6.13-.71-9.07-1.63a4.57,4.57,0,0,1-1.77-.93,4.17,4.17,0,0,1-1.07-3.37,19.46,19.46,0,0,1,.48-2.62c.1-.5,0-1.4.51-1.73a6.06,6.06,0,0,1,.78-.45,2,2,0,0,0,1-1.75.86.86,0,0,0-.35-.78.77.77,0,0,0-.85.15c-.33.29-.29.64-.72.72a2.32,2.32,0,0,1-1.3-.4c-2.81-1.56-3.89-5.67-4.74-8.57C261.83,135.8,262,135.36,262.41,135.19Z" transform="translate(-38.7 -10.2)" fill="#2f3554"></path><path d="M269.07,165.47c2.34-6.79,3.9-10.13,6.28-9.28,0,0,3.12,1.55,1.35,7.79-2,7-7.22,13.55-7.22,13.55l-2.43-5.35S267.84,169.21,269.07,165.47Z" transform="translate(-38.7 -10.2)" fill="#ec9c7d"></path><path d="M244.32,190.36c.15-.18.63-.78,1.35-1.56a1.07,1.07,0,0,0-.18.19A16.92,16.92,0,0,0,244.32,190.36Z" transform="translate(-38.7 -10.2)" fill="#dc9bd5"></path><path d="M272.62,180.54c-3.21.19-6.59.41-9.89.89,0,0-13,10.91-14.6,13.55-3.83,6.13-7.55,4.39-2,13.35l11.1,17.92c1.88.63,3.89-1,4.44-3a10.45,10.45,0,0,0-.58-5.88c-1.14-3.86-2.25-7.73-3.35-11.58a3.48,3.48,0,0,1,0-2.65,3.41,3.41,0,0,1,1.2-1c1.32-.78,2.22-2.63,3.68-3.08a24.29,24.29,0,0,0,7-3.11,9.87,9.87,0,0,0,4.26-6.18C274.42,186.74,273,183.67,272.62,180.54Z" transform="translate(-38.7 -10.2)" fill="#1e3a8a"></path><path d="M262.71,181.46c-2.66.33-7-.89-7-.89-3.79,1.69-7.89,5.89-10,8.25h0c-.73.78-1.21,1.38-1.36,1.55h0l-.21.27c-2.34,3.11-3.81,6.78-5.26,10.4l-7.31,18.21a4.59,4.59,0,0,0-.44,1.82c.11,2.25,3.12,2.85,5.37,2.81l9.71-15.59s-1.84-5.56,2-13.34c1.37-2.79,14.62-13.55,14.62-13.55Z" transform="translate(-38.7 -10.2)" fill="#1e3a8a"></path><path d="M262.71,181.46c-2.66.33-7-.89-7-.89-3.79,1.69-7.89,5.89-10,8.25h0c-.73.78-1.21,1.38-1.36,1.55h0l-.21.27c-2.34,3.11-3.81,6.78-5.26,10.4l-7.31,18.21a4.59,4.59,0,0,0-.44,1.82c.11,2.25,3.12,2.85,5.37,2.81l9.71-15.59s-1.84-5.56,2-13.34c1.37-2.79,14.62-13.55,14.62-13.55Z" transform="translate(-38.7 -10.2)" fill="url(#linear-gradient-2)"></path><path d="M257.43,227.78c.22-.55.46-1.09.73-1.62a10.3,10.3,0,0,1,1.56-1.23c.23-.2,1.56-1.33,1.48-1.65a18.29,18.29,0,0,0,1.19,3.11,3.3,3.3,0,0,1,.56,2,3,3,0,0,1-1.19,1.56c-2.08,1.71-4.55,3.33-7.22,3a.55.55,0,0,1-.44-.18.46.46,0,0,1-.1-.32c0-1.19,1.11-2,2-2.78A7.31,7.31,0,0,0,257.43,227.78Z" transform="translate(-38.7 -10.2)" fill="#ec9c7d"></path><path d="M262.5,227.29c-.5.16-.93.89-1.3,1.26a15.31,15.31,0,0,1-1.56,1.34,2.15,2.15,0,0,1-1.64.56c-.58-.12-1-.64-1.56-.82a1.75,1.75,0,0,0-1.49.26,4.07,4.07,0,0,0-1.1,1.09,7.47,7.47,0,0,0-1.51,3.78.58.58,0,0,0,.09.44.56.56,0,0,0,.26.17,3.35,3.35,0,0,0,2.54-.46,39.86,39.86,0,0,0,5.33-2.91,14.6,14.6,0,0,1,2.56-1.56.74.74,0,0,0,.44-.31.68.68,0,0,0,.06-.4C263.56,229,263.62,226.84,262.5,227.29Z" transform="translate(-38.7 -10.2)" fill="#505365"></path><path d="M277.64,158.17c-.58-1.56-3.53-5.13-5.53-3.67a7,7,0,0,0-2.59,3.85c-.19.71-.26,1.47-.44,2.2-.24.9-.62,1.76-.78,2.67a10.9,10.9,0,0,0-.05,2.91q2.85-.4,5.68-.84l2.84-.45c.53-.08,1.61.13,1.86-.42a1.71,1.71,0,0,0,.06-1l-.23-1.61a17.53,17.53,0,0,0-.78-3.5A.74.74,0,0,0,277.64,158.17Z" transform="translate(-38.7 -10.2)" fill="#fff"></path><path d="M249.16,170.73l1.39-1.6s14.81,2.33,16.95,3.18,2,5.21,2,5.21C263.72,179.12,249.16,170.73,249.16,170.73Z" transform="translate(-38.7 -10.2)" fill="#ec9c7d"></path><path d="M251.82,171.17a.93.93,0,0,1-.29.46,1.48,1.48,0,0,1-.5.17c-1.05.25-1.86,1.08-2.85,1.47a4.69,4.69,0,0,1-3.17.55,9.47,9.47,0,0,1-2.71-1.32,5.07,5.07,0,0,1-1.37-1.11,1.72,1.72,0,0,1-.32-1.66c.32-.8,1.31-1.06,2.17-1.18a17.08,17.08,0,0,1,3.5-.15c1,.07,2,.38,3,.44C250.66,168.92,252.35,169.43,251.82,171.17Z" transform="translate(-38.7 -10.2)" fill="#ec9c7d"></path><path d="M155.85,186l-9.16,34.4a1.32,1.32,0,0,0,.94,1.62,1.75,1.75,0,0,0,.33,0h0a1.32,1.32,0,0,0,1.27-1l9.17-34.4a1.31,1.31,0,0,0-.94-1.6h-.06A1.31,1.31,0,0,0,155.85,186Z" transform="translate(-38.7 -10.2)" fill="#1e3a8a"></path><path d="M172.81,186l6.76,34.15a1.41,1.41,0,0,1-1.16,1.62l-.22,0h0a1.23,1.23,0,0,1-1.21-1l-6.77-34.15a1.4,1.4,0,0,1,1.06-1.6h0a1.22,1.22,0,0,1,1.51.83Z" transform="translate(-38.7 -10.2)" fill="#1e3a8a"></path><path d="M162,186.14l-5.88,34.27a1.45,1.45,0,0,0,1.24,1.64h.18a1.18,1.18,0,0,0,1.18-1l5.89-34.27a1.44,1.44,0,0,0-1.1-1.6h0A1.19,1.19,0,0,0,162,186Z" transform="translate(-38.7 -10.2)" fill="#1e3a8a"></path><path d="M179.42,186.3l12,34.12a1.21,1.21,0,0,1-.68,1.56,1.33,1.33,0,0,1-.45.08h0a1.44,1.44,0,0,1-1.35-1l-12-34.12a1.19,1.19,0,0,1,.66-1.55l.15,0h0A1.44,1.44,0,0,1,179.42,186.3Z" transform="translate(-38.7 -10.2)" fill="#1e3a8a"></path><path d="M174.3,159.92c-3-5.29-7.07-10.52-12.89-12.28-3.6-1.08-7.46-.71-11.16-.07a21.31,21.31,0,0,0-7.92,2.6A8.74,8.74,0,0,0,138,157a13.11,13.11,0,0,0,1,4.71l5.48,15.77c.72,2.07,1.5,4.24,3.15,5.69a12.65,12.65,0,0,0,5.56,2.37c6.52,1.63,13.11,3.27,19.83,3.47s13.68-1.17,19.17-5.06c1.95-1.38,3.84-3.81,2.77-5.94-.82-1.66-3-2.1-4.83-2-4.85.2-6.26-.36-9.12-4.32C178.38,168,176.51,163.82,174.3,159.92Z" transform="translate(-38.7 -10.2)" fill="#505365"></path><path d="M152.11,153.32c-5.79,5.39-7,14.79-3.45,21.85,2.62,5.17,8,9.24,13.82,8.91a5,5,0,0,0,2.38-.63c1.6-1,1.93-3.15,2.1-5a33.47,33.47,0,0,0,0-9.27c-.53-2.8-1.78-5.45-2.1-8.29-.2-1.8,0-3.62-.11-5.43-.14-2.8-.76-5.71-3.92-5.76A12.86,12.86,0,0,0,152.11,153.32Z" transform="translate(-38.7 -10.2)" fill="url(#linear-gradient-3)"></path><path d="M162.62,159.73a15.6,15.6,0,0,1,.06,2.9c-.17,1.15-.2,2.33-.35,3.49A38.68,38.68,0,0,1,160.7,173a3.54,3.54,0,0,0-.19,2.71,3.4,3.4,0,0,0,1.41,1.19c1.07.61,2,1.4,3,2a24.48,24.48,0,0,0,3.7,1.45c3.72,1.22,10.78,3.07,12.25-2.22,1.68-6,3.09-11.86,4.18-18a40,40,0,0,0,1.07-6.43c0-1.76-1.83-2.38-3.42-2.72l-.3-.06-.92-.18a45,45,0,0,1-6.23-1.84c-2.3-.83-5.93-2.27-8.92-.83a4.42,4.42,0,0,0-.6.34C162.57,150.38,162.34,155.27,162.62,159.73Z" transform="translate(-38.7 -10.2)" fill="#fff"></path><path d="M194.34,169.7a31.32,31.32,0,0,0-2.61,2.28c-1.19,1.47-1.76,1.69-3.59.76a9.17,9.17,0,0,1-4-3.94,39.31,39.31,0,0,1-2.49-6.09,4.11,4.11,0,0,1,0-3.19c.47-1.42,1-2.83,1.58-4.21.43-1,2.92,1.56,3.18,1.89,1.49,1.85,3,3.67,4.29,5.63a43.25,43.25,0,0,1,7.17-2.52,1.4,1.4,0,0,1,.76,0,1.25,1.25,0,0,1,.58.66l2.3,4.31C201.17,164.48,197.13,167.45,194.34,169.7Z" transform="translate(-38.7 -10.2)" fill="#fff"></path><path d="M170.44,161.75a8.33,8.33,0,0,0,1.2,3c.67,1,1.84,4.4,3.4,4a5.35,5.35,0,0,1-2.3.43c1.53,2,3.91,3.24,6.14,4.46a4.89,4.89,0,0,1,1.57,1.17,1.74,1.74,0,0,1,.29,1.83c-.52,1-2,.89-3.1.6-2.73-.71-5.44-1.53-8.2-2.07-2.35-.46-5-.67-7,.68a1,1,0,0,1-.52.24.66.66,0,0,1-.61-.58,2,2,0,0,1,.14-.9,26,26,0,0,0,1.11-6.89c0-.94.28-1.83.3-2.73,0-1.12-.22-2.26-.24-3.38a30.43,30.43,0,0,1,.66-6.73c.32-1.55,1-3.32,2.56-3.68a3,3,0,0,1,3,1.31,6.87,6.87,0,0,1,1,3.23A58,58,0,0,0,170.44,161.75Z" transform="translate(-38.7 -10.2)" fill="#d8dae1"></path><path d="M166.36,148c3-1.44,6.62,0,8.92.83a43.13,43.13,0,0,0,6.22,1.84c.31.05.62.11.92.18-1-.91-2.9-1.13-4.23-1.52-2-.58-4-1.1-6.05-1.57S168,147,166.36,148Z" transform="translate(-38.7 -10.2)" fill="#fff"></path><path d="M174.93,142.51a4.38,4.38,0,0,0,5.29,2.73s-1.07,3.07.17,4.95c.23.36-1.37.68-1.46.69a6.57,6.57,0,0,1-2.62-.61,18.26,18.26,0,0,0-4-1.4,2.89,2.89,0,0,0,1.48-1.48,6.94,6.94,0,0,0,.28-4.54.59.59,0,0,0,.67-.06A.54.54,0,0,0,174.93,142.51Z" transform="translate(-38.7 -10.2)" fill="#d68369"></path><path d="M177.64,146.52c3,.94,5.46-1.49,6.64-5.11.12-.4.23-.81.32-1.23a15.81,15.81,0,0,0,.4-3.69c-.06-6-8.66-5.53-8.66-5.53C169.35,132.4,172.46,144.9,177.64,146.52Z" transform="translate(-38.7 -10.2)" fill="#ec9c7d"></path><path d="M182.34,130.1A4.59,4.59,0,0,1,185,132a11,11,0,0,0,.9,1.52c.53.66,1.32,1.14,1.58,1.94a6,6,0,0,1-3.92-.78,1.12,1.12,0,0,1-.95.52,3.24,3.24,0,0,1-1.11-.23,1,1,0,0,0-.62-.06,1.07,1.07,0,0,0-.41.28,2.77,2.77,0,0,1-2.61.5c-.53-.17-1.06-.51-1.56-.35a1.64,1.64,0,0,0-.88,1.51c0,.37.17.72.18,1.1a3.47,3.47,0,0,1-.19,1.15,2.78,2.78,0,0,0-.72-.69,1,1,0,0,0-.95,0,.92.92,0,0,0-.3.29,1.87,1.87,0,0,0,.26,2.39c-.1.37-.2.74-.28,1.12a5.82,5.82,0,0,1-1.09-1.8,11.08,11.08,0,0,0-.88-2.14,5.91,5.91,0,0,1-.65-1,5.41,5.41,0,0,0-.27-.77c-.34-.63-.81-1.25-.6-2s1.1-1.36.92-2.14a2.64,2.64,0,0,0-.12-.44,1.15,1.15,0,0,1,.15-.63,5.92,5.92,0,0,1,4.12-3,13.13,13.13,0,0,1,5.26.14c1.73.33,3.45.8,5.21,1a.38.38,0,0,1,.37.17.31.31,0,0,1,0,.19c-.08.38-.44.62-.73.88s-.55.68-.34,1" transform="translate(-38.7 -10.2)" fill="#2f3554"></path><path d="M166.74,177s3.64,9.1,6.56,10.05,13.7,4.3,13.7,4.3l5.33,10.81c3,6.18,6.41,12.22,8.6,18.75a2.84,2.84,0,0,0,.57,1.12,2.88,2.88,0,0,0,2.51.44c1.83-.25,3.66-.5,5.46-.92.87-.21,1.93-.68,1.92-1.58s-1-1.33-1.76-1.61l-2.51-.87a2.62,2.62,0,0,1-2.22-2.35,27,27,0,0,1-.94-4.63c-.11-1.46-1.19-2.91-1.19-4.29l-3.19-9.2-4.86-14v-.09l-11.78-6Z" transform="translate(-38.7 -10.2)" fill="#2f3554"></path><path d="M161.69,178.79s-.69,8.29,2.24,9.25,13.74,4.26,13.74,4.26l4.17,11.35c1.71,4.68,4,9.46,5.25,14.29a27.56,27.56,0,0,1,.44,4.16,2.26,2.26,0,0,0,.28,1.08,2.33,2.33,0,0,0,1.71.76q4.06.51,8.16.71a1.64,1.64,0,0,0,1-.14,1.34,1.34,0,0,0,.54-.83,3,3,0,0,0-.9-3c-.88-.78-2.12-1-3.11-1.6-2.14-1.37-2.32-5.2-2.91-7.54l-2.19-8.82L185.9,186c-.06-.26-.26-2-.52-2.1l-11.78-6S166.76,175.32,161.69,178.79Z" transform="translate(-38.7 -10.2)" fill="#4c506d"></path><path d="M161.69,178.79s-.69,8.29,2.24,9.25,13.74,4.26,13.74,4.26l4.17,11.35c1.71,4.68,4,9.46,5.25,14.29a27.56,27.56,0,0,1,.44,4.16,2.26,2.26,0,0,0,.28,1.08,2.33,2.33,0,0,0,1.71.76q4.06.51,8.16.71a1.64,1.64,0,0,0,1-.14,1.34,1.34,0,0,0,.54-.83,3,3,0,0,0-.9-3c-.88-.78-2.12-1-3.11-1.6-2.14-1.37-2.32-5.2-2.91-7.54l-2.19-8.82L185.9,186c-.06-.26-.26-2-.52-2.1l-11.78-6S166.76,175.32,161.69,178.79Z" transform="translate(-38.7 -10.2)" fill="#2f3554"></path><path d="M163.67,151.69s1.31,12.53,6,15.69,15.92-10.13,15.92-10.13L182,154.34l-9.26,4.72s-1.32-10.58-3.21-10.73S163.63,149.59,163.67,151.69Z" transform="translate(-38.7 -10.2)" fill="#fff"></path><path d="M186.86,149.92a3,3,0,0,1,1.46-.75,3.14,3.14,0,0,1,1.45.26c.92.3,1.94.82,2.12,1.76a2.22,2.22,0,0,1-.85,1.93c-.55.48-1.21.82-1.77,1.3-.79.68-1.38,1.66-2.36,2a3,3,0,0,1-1.29.14c-1.45-.13-3-1.35-2.16-2.85A15,15,0,0,1,186.86,149.92Z" transform="translate(-38.7 -10.2)" fill="#ec9c7d"></path><path d="M194.92,179.94a6.22,6.22,0,0,0-1.74-2.52,9.24,9.24,0,0,0-1.28-.68,10.59,10.59,0,0,0-1.59-.77.57.57,0,0,0-.26,0,.3.3,0,0,0-.2.33,1,1,0,0,0,.17.37,5.29,5.29,0,0,0,.95,1,3.06,3.06,0,0,1-2.61,0,5.25,5.25,0,0,0-3.43-.26,1.12,1.12,0,0,0-.55.38,1.38,1.38,0,0,0,.29,1.56,9.23,9.23,0,0,0,1.25,1.25,4.87,4.87,0,0,0,1.46,1,4.78,4.78,0,0,0,.93.18l1.82.23a4.92,4.92,0,0,1,1.51.37c.91.45,2,2.53,3.09,2.13.65-.22,1.57-.89,1.45-1.66a6.48,6.48,0,0,0-.63-1.33C195.33,181,195.14,180.45,194.92,179.94Z" transform="translate(-38.7 -10.2)" fill="url(#linear-gradient-4)"></path><path d="M202.7,210.24a10,10,0,0,0,.79,4.11h.08c1.49,0,3,0,4.48.09a63.38,63.38,0,0,1,7.39,1c1.13.21,2.26.44,3.38.67l3.22.65c2.05.4,4,.74,5.92,1a18.17,18.17,0,0,0,6.44-4.63l.56-.66c.23-.29.45-.6.66-.92a7.11,7.11,0,0,0,1.18-3,4.42,4.42,0,0,0-.05-1.31,6.17,6.17,0,0,0-2.61-3.61l-.4-.29a15.28,15.28,0,0,0-9.28-2.7h-.83a28.07,28.07,0,0,0-5.22.89c-2.71.69-5.42,1.66-8.1,2.52a21.72,21.72,0,0,0-5.63,2.4,5,5,0,0,0-1.29,1.22A4.56,4.56,0,0,0,202.7,210.24Z" transform="translate(-38.7 -10.2)" fill="#3e3e54"></path><path d="M202.94,214.55q.52,2.7.93,5.42a125.73,125.73,0,0,1,1.27,12.71,2.77,2.77,0,0,1-.11,1.18c-.46,1.12-2,1.18-3.18,1.17s-2.78.48-2.76,1.68c0,.94,1,1.49,1.93,1.79a23.72,23.72,0,0,0,8.23,1.25,2.62,2.62,0,0,0,1-.16c1.9-.83.4-3,.2-4.32-.29-1.87.43-3.93.88-5.71,1.06-4.15,3.86-7.91,3.75-12.32a2.38,2.38,0,0,1,.29-1.63c.53-.65,2.74.4,3.44.54l3.22.65c5.77,1.12,11.1,2.41,17,1.31a2.35,2.35,0,0,0,1-.35,2.2,2.2,0,0,0,.72-1.19,10.42,10.42,0,0,0-.62-7.88c-1.44-2.85-3.74-4-6.42-5.34-3.1-1.57-5.71-2.75-9.28-2.65h-.83a28.19,28.19,0,0,0-5.24.92c-4.35,1.12-14.38,2.71-16,7.76-.53,1.59.13,2.87.45,4.42Z" transform="translate(-38.7 -10.2)" fill="#3e3e54"></path><path d="M202.94,214.55q.52,2.7.93,5.42a125.73,125.73,0,0,1,1.27,12.71,2.77,2.77,0,0,1-.11,1.18c-.46,1.12-2,1.18-3.18,1.17s-2.78.48-2.76,1.68c0,.94,1,1.49,1.93,1.79a23.72,23.72,0,0,0,8.23,1.25,2.62,2.62,0,0,0,1-.16c1.9-.83.4-3,.2-4.32-.29-1.87.43-3.93.88-5.71,1.06-4.15,3.86-7.91,3.75-12.32a2.38,2.38,0,0,1,.29-1.63c.53-.65,2.74.4,3.44.54l3.22.65c5.77,1.12,11.1,2.41,17,1.31a2.35,2.35,0,0,0,1-.35,2.2,2.2,0,0,0,.72-1.19,10.42,10.42,0,0,0-.62-7.88c-1.44-2.85-3.74-4-6.42-5.34-3.1-1.57-5.71-2.75-9.28-2.65h-.83a28.19,28.19,0,0,0-5.24.92c-4.35,1.12-14.38,2.71-16,7.76-.53,1.59.13,2.87.45,4.42Z" transform="translate(-38.7 -10.2)" fill="url(#linear-gradient-5)"></path><path d="M194.73,215a20.4,20.4,0,0,0-3.34,5.74c-1,2.33-7,27.31-7.26,27.26l4.54,1.2a120.25,120.25,0,0,0,13-24c1-2.43,1-2.66,3.69-3.17,2.32-.46,4.64-.95,6.94-1.5a92.24,92.24,0,0,0,13.2-4.14,40.49,40.49,0,0,0,7.42-3.78,4.85,4.85,0,0,0,.9-.91c.11-.15.22-.31.32-.47a3.86,3.86,0,0,0,.56-2.22,2.52,2.52,0,0,0-.11-.61,5.31,5.31,0,0,0-2.32-2.7,10.87,10.87,0,0,0-5.49-2c-1.32-.08-2.65.19-4,.12s-2-.72-3-.88a6,6,0,0,0-2.38.21,29.26,29.26,0,0,0-5.07,2.29l-9.51,4.75h-.08l-1.9.95c-2,1-4.28,2-5.86,3.62Z" transform="translate(-38.7 -10.2)" fill="#3e3e54"></path><path d="M177.44,246.84a5,5,0,0,0-2.35.74,1.93,1.93,0,0,0-.79,2.17,2.62,2.62,0,0,0,1.31,1.19A21.1,21.1,0,0,0,186.3,253a2.39,2.39,0,0,0,1.47-.4,2.55,2.55,0,0,0,.69-1.39,5.57,5.57,0,0,0,.2-3c-.6-2-2.83-1.56-4.41-1.65A36.94,36.94,0,0,0,177.44,246.84Z" transform="translate(-38.7 -10.2)" fill="#3e3e54"></path><path d="M210.82,158.52c-.38.48-1,1-.74,1.54.12.3.46.45.72.64a3.33,3.33,0,0,1,1.12,2.28,7.88,7.88,0,0,0,.61,2.53,1.86,1.86,0,0,0,2.14,1c.48-.19.93-.67,1.42-.51s.54.56.76.89a2.59,2.59,0,0,0,2.59.9,7.56,7.56,0,0,0,2.62-1.22,2,2,0,0,0,.82-.79,1.56,1.56,0,0,0,0-1,8,8,0,0,0-1.68-2.58,11.84,11.84,0,0,1-2.33-5.21c-.23-1.32-.29-2.8-1.22-3.75-1.27-1.3-4-1-5.35.16S212,157,210.82,158.52Z" transform="translate(-38.7 -10.2)" fill="url(#linear-gradient-6)"></path><path d="M212.53,152.22a1.65,1.65,0,0,0,.2.64c.34.56,1.3.92,1.88,1.24a2.73,2.73,0,0,1,1.29,1.56c.37,1.22-.16,2.65.34,3.84.17.23.56,0,.69-.21s.19-.58.42-.75c.39-.28.94.08,1.16.51a2.19,2.19,0,0,1-.94,2.85c.09.38.61.49,1,.4a3.85,3.85,0,0,1,1.16-.27c.91.08,1.37,1.35,2.28,1.39s1.58-1.41,2.26-2,1.91-.71,2.25-1.54c.16-.4.07-.91.4-1.19a1.62,1.62,0,0,1,.83-.23,2,2,0,0,0,1.41-1.31,3.11,3.11,0,0,0-.07-2,1.53,1.53,0,0,0-.39-.66,2.55,2.55,0,0,0-1-.39c-1.59-.45-2.72-1.81-3.91-3s-2.76-2.22-4.38-1.86a3.66,3.66,0,0,0-2.84-1.39,4,4,0,0,0-1.55.66,6.15,6.15,0,0,0-2,1.83A3.28,3.28,0,0,0,212.53,152.22Z" transform="translate(-38.7 -10.2)" fill="#dd8049"></path><path d="M220.49,165.05a24.54,24.54,0,0,0-2.74,1.76,2.31,2.31,0,0,0-.67.72,1.1,1.1,0,0,0,0,1c.31.43.88.21,1.32,0a17.25,17.25,0,0,1,6.43-1.56.8.8,0,0,0,.76-.42,1.09,1.09,0,0,0-.18-.89C224.06,163.46,222.25,164,220.49,165.05Z" transform="translate(-38.7 -10.2)" fill="#fff"></path><path d="M216.62,193.58a41.07,41.07,0,0,1-2.29-6.16c-.14-.46-.36-2.27-1.1-2.17-.39.06-1.09,1.89-1.31,2.26a27,27,0,0,1-7.49,8.16,3.23,3.23,0,0,1-1.82.77,3.43,3.43,0,0,1-2.31-1.37,66.41,66.41,0,0,1-8.17-10.57,59.3,59.3,0,0,1,4.92-3.72,11.71,11.71,0,0,0,5.69,4.7c1-2.76,1.54-6.38,3.21-8.75,1.13-1.61,2.34-3.23,3.34-4.95a5.61,5.61,0,0,1,1-1.27,5.23,5.23,0,0,1,1.92-.87A138.17,138.17,0,0,1,228.05,166a7.69,7.69,0,0,1,2.44-.16c2.28.34,3.78,2.49,4.93,4.49,6,10.43,10.28,22.27,9.61,34.29a6.59,6.59,0,0,1-.31,1.92,5.51,5.51,0,0,1-1.86,2.33,15.66,15.66,0,0,1-9.63,2.94c-5.1,0-11.83-1.49-15.63-5.16-2.16-2.07,0-3.32,1-5.37C219.93,198.65,217.77,195.93,216.62,193.58Z" transform="translate(-38.7 -10.2)" fill="#1e3a8a"></path><path d="M242,185.14a24.47,24.47,0,0,0-1.57-4.65c-3,2.12-5.15,6.26-6.25,9.74s-2,7.15-4.23,10l-2.42-.84-.45,1.53c-.36,1.21.66,2.44.56,3.66a3.31,3.31,0,0,1-2.49,2.6,8.16,8.16,0,0,1-4.27-.3,6.41,6.41,0,0,1-2.5-1.08,2.38,2.38,0,0,1-.9-2.42,1.54,1.54,0,0,0-.67,1.76,3.49,3.49,0,0,0,1.16,1.64,19,19,0,0,0,6,3.11,22.48,22.48,0,0,0,3.07,1,31.06,31.06,0,0,0,7.32.75c1.49,0,2.39-.2,3-1.68.94-2.1,1-4.48,1.24-6.78A118.88,118.88,0,0,1,242,185.14Z" transform="translate(-38.7 -10.2)" fill="url(#linear-gradient-7)"></path><path d="M263.2,191.3a13.16,13.16,0,0,1-1,4.71c-.11.33-.23.66-.35,1q-2.55,7.4-5.13,14.78c-.72,2.07-1.5,4.24-3.15,5.69a12.88,12.88,0,0,1-5.56,2.37c-6.52,1.63-13.11,3.27-19.83,3.46a35.75,35.75,0,0,1-12.9-1.84h0a25.92,25.92,0,0,1-6.26-3.21c-2-1.38-3.84-3.81-2.77-5.95.82-1.65,3-2.09,4.83-2,4.85.2,6.26-.36,9.12-4.33,2.63-3.65,4.5-7.79,6.71-11.7,3-5.29,7.07-10.52,12.89-12.27,3.6-1.09,7.46-.71,11.16-.08a21.33,21.33,0,0,1,7.92,2.61A8.74,8.74,0,0,1,263.2,191.3Z" transform="translate(-38.7 -10.2)" fill="#505365"></path><path d="M261.83,197q-2.55,7.4-5.13,14.78c-.72,2.07-1.5,4.24-3.15,5.69a12.88,12.88,0,0,1-5.56,2.37c-6.52,1.63-13.11,3.27-19.83,3.46a35.75,35.75,0,0,1-12.9-1.84h0a26.9,26.9,0,0,1-2.58-2.65c-.55-.67-1.1-1.6-.65-2.33s1.31-.71,2.08-.72a19.12,19.12,0,0,0,15.7-9.06,49.7,49.7,0,0,0,3.34-7.54c2.15-5.34,5.15-10.67,10.07-13.69a8.49,8.49,0,0,1,5.17-1.48,10.52,10.52,0,0,1,3.24,1c4.16,1.86,9.79,5.43,10.22,10.53A8.13,8.13,0,0,1,261.83,197Z" transform="translate(-38.7 -10.2)" fill="url(#linear-gradient-8)"></path><path d="M245.34,220.34l9.15,34.4a1.32,1.32,0,0,1-1,1.61,1.12,1.12,0,0,1-.32,0h0a1.32,1.32,0,0,1-1.27-1L242.79,221a1.32,1.32,0,0,1,.92-1.61h0A1.33,1.33,0,0,1,245.34,220.34Z" transform="translate(-38.7 -10.2)" fill="#1e3a8a"></path><path d="M228.38,220.33l-6.77,34.16a1.41,1.41,0,0,0,1.16,1.62l.23,0h0a1.2,1.2,0,0,0,1.2-1L231,221a1.41,1.41,0,0,0-1.06-1.6h0a1.22,1.22,0,0,0-1.53.82Z" transform="translate(-38.7 -10.2)" fill="#1e3a8a"></path><path d="M239.2,220.47l5.88,34.28a1.46,1.46,0,0,1-1.27,1.63h-.16a1.18,1.18,0,0,1-1.18-1l-5.89-34.27a1.44,1.44,0,0,1,1.1-1.6h0a1.2,1.2,0,0,1,1.49.81Z" transform="translate(-38.7 -10.2)" fill="#1e3a8a"></path><path d="M221.76,220.63l-12,34.12a1.21,1.21,0,0,0,.68,1.56,1.39,1.39,0,0,0,.46.08h0a1.44,1.44,0,0,0,1.35-1l12-34.11a1.21,1.21,0,0,0-.68-1.56l-.13,0h0A1.43,1.43,0,0,0,221.76,220.63Z" transform="translate(-38.7 -10.2)" fill="#1e3a8a"></path><path d="M266.14,113.25c-2.63,0-6.51-1.8-8.39,1a11.63,11.63,0,0,0-.82,1.66c-1.55,3.27-5,5.16-8.31,6.61,2-2.49,3.76-5.49,3.44-8.66-.33-3.35-4.3-3.44-6.86-4.53a32.84,32.84,0,0,1-7.48-4.33c-3.59-2.84-6.59-6.87-6.59-11.62,0-11,15.68-19.9,35-19.9s35,8.91,35,19.9S285.48,113.25,266.14,113.25Z" transform="translate(-38.7 -10.2)" fill="#1e3a8a"></path><path d="M160.74,114.73a41.75,41.75,0,0,1-5.48,0c-2.21-.3-4.34-.81-3.83,2.66.6,4,4.23,6.9,5.83,10.65-7.59-1.89-13.22-6.26-18.44-11.85-2.32-2.49-6.3-1.46-9.57-1.46h-5.62a24.26,24.26,0,1,1,0-48.52h37.11a24.26,24.26,0,0,1,0,48.52Z" transform="translate(-38.7 -10.2)" fill="#1e3a8a"></path><path d="M200.84,159.7a1.62,1.62,0,0,1,.39-.91c.3-.25.75-.17,1.14-.15,1.67.07,3-1.3,4.37-2.24a.38.38,0,0,1,.23-.08c.09,0,.15.11.2.19.76,1.4.19,3.15-.62,4.51s-1.86,2.48-3.31,2.54a12.45,12.45,0,0,0-2.72-.18c-.58.13-1,.49-1.27-.21C198.69,161.92,200.56,160.8,200.84,159.7Z" transform="translate(-38.7 -10.2)" fill="#ec9c7d"></path><path d="M177.89,181.61a4.75,4.75,0,0,1-.31,1.75,8.7,8.7,0,0,1,3.22-1l1.58-.29a1.16,1.16,0,0,1,.93.09.92.92,0,0,1,.23.92,3.59,3.59,0,0,1-.9,1.51,15.7,15.7,0,0,1-1.6,1.56,5,5,0,0,1-1.27.8c-1.11.4-2.34,0-3.52.1a4.31,4.31,0,0,1-.88,0,1.37,1.37,0,0,1-1.08-.9c-.42-1.23.74-1.69,1.39-2.42S176.87,181.92,177.89,181.61Z" transform="translate(-38.7 -10.2)" fill="url(#linear-gradient-9)"></path><path d="M167.85,202.38a8.34,8.34,0,0,1-.67,3.48h-.07c-1.26,0-2.53,0-3.79.08a52.84,52.84,0,0,0-6.27.88c-1,.17-1.91.37-2.86.56l-2.74.56c-1.73.34-3.4.63-5,.86a15.33,15.33,0,0,1-5.46-3.93c-.17-.18-.32-.37-.48-.56s-.38-.51-.56-.78a5.9,5.9,0,0,1-1-2.54,3.45,3.45,0,0,1,0-1.11,5.25,5.25,0,0,1,2.22-3l.34-.25a13,13,0,0,1,7.87-2.29h.7a24.58,24.58,0,0,1,4.43.76c2.29.58,4.59,1.41,6.86,2.13a18.35,18.35,0,0,1,4.77,2,3.39,3.39,0,0,1,1.71,3.15Z" transform="translate(-38.7 -10.2)" fill="#3e3e54"></path><path d="M168.27,213.31c-.3,1.52-.56,3.05-.79,4.59-.32,2.11-.46,4.26-.8,6.36s-.28,4.18-.63,6.25a11.6,11.6,0,0,0-.27,2.35,10,10,0,0,0,.83,3.18c-.06.14-.26.13-.41.09a10.9,10.9,0,0,1-2.42-.86,3.59,3.59,0,0,1-1.73-1.83c-.66-1.71.13-3.62-.37-5.41a22,22,0,0,1-1.1-6.79,44,44,0,0,0,.32-5c-.23-2.86-2-5.74-1-8.42a5.64,5.64,0,0,1,4.59-3.26,3.8,3.8,0,0,1,1.89.16c3,1.2,2.48,5.66,2,8Z" transform="translate(-38.7 -10.2)" fill="url(#linear-gradient-10)"></path><path d="M161.34,233.4a.44.44,0,0,1,.15-.12c.23-.1.45.17.58.39a5.06,5.06,0,0,0,2.44,2.08.56.56,0,0,0,.4.05c.15-.06.23-.22.35-.33a.69.69,0,0,1,.66-.11,2,2,0,0,1,.61.33,12.83,12.83,0,0,1,1.64,1.3,1,1,0,0,1,.35,1,.82.82,0,0,1-.45.37,3.23,3.23,0,0,1-2.17-.08c-1.3-.43-2.44-1.21-3.71-1.72a.67.67,0,0,0-.28-.06l-.21.05a.75.75,0,0,1-.56-.36A2,2,0,0,1,161.34,233.4Z" transform="translate(-38.7 -10.2)" fill="#3e3e54"></path><path d="M174.35,214.08a11.46,11.46,0,0,1,.78,4.52c0,4-1.1,7.82-2.17,11.63-.45,1.6-.83,3.25-1.36,4.83s.64,4.34,1.49,5.69a3.57,3.57,0,0,1,.5.92.89.89,0,0,1-.29,1,1.12,1.12,0,0,1-.6.13,8.59,8.59,0,0,1-4.78-1.82,1.35,1.35,0,0,1-.76-1.51c.5-8.78,3-17.23-3-24.78-1.38-1.74-3.11-3.33-3.7-5.46a1.89,1.89,0,0,1,0-1,1.56,1.56,0,0,1,.63-.76c1.37-1,3.24-.87,4.89-.49A11.56,11.56,0,0,1,174.35,214.08Z" transform="translate(-38.7 -10.2)" fill="url(#linear-gradient-11)"></path><path d="M167.84,242c1.28.41,2.29,1.36,3.53,1.86a12.41,12.41,0,0,0,3.55,1.2,1.26,1.26,0,0,0,.61,0,1,1,0,0,0,.43-1.35l0,0a4.83,4.83,0,0,0-1-1.25,10.45,10.45,0,0,1-1-1.3c-.26-.38-.53-1-1-1.15s-1.09.2-1.54.27a2.9,2.9,0,0,1-1.86-.44,6.84,6.84,0,0,1-1.45-1.29c-.22-.25-.54-.54-.85-.41s-.34.44-.37.72c-.07.68-.12,1.36-.13,2a1.06,1.06,0,0,0,.09.61C167,241.79,167.46,241.89,167.84,242Z" transform="translate(-38.7 -10.2)" fill="#3e3e54"></path><path d="M168.44,198.38a14.87,14.87,0,0,1,7.06,12.39,35,35,0,0,1-13.88,6.29,3.1,3.1,0,0,1-1.76,0,3.68,3.68,0,0,1-1.22-1c-4.61-4.74-12.73-4.26-17.57-8.76-1.83-1.71-3-4.65-1.58-6.69a6.73,6.73,0,0,1,2.14-1.75c3.77-2.24,8.21-5.59,12.76-4.81S164.51,196,168.44,198.38Z" transform="translate(-38.7 -10.2)" fill="#1e3a8a"></path><path d="M170.22,214.29c-2.31-2.47-2.73-6.09-3-9.46a8.76,8.76,0,0,1-2.21,1.39l-.39-1.05a.46.46,0,0,0-.19-.26.58.58,0,0,0-.32,0,32.36,32.36,0,0,1-10.18,1.71,6.55,6.55,0,0,1-3.82-.86,2.58,2.58,0,0,1-.85-3.46,59,59,0,0,1-8.53,1.66.87.87,0,0,0-.63.24c-.22.29,0,.7.19,1a15.36,15.36,0,0,0,9.71,6.2c1.09.19,6.87,2.35,9.47,5.74a1.5,1.5,0,0,0,1.52.48Z" transform="translate(-38.7 -10.2)" fill="url(#linear-gradient-12)"></path><path d="M159.73,154.19a3.52,3.52,0,0,0-1-.56,3.4,3.4,0,0,0-3.52.45c-.79.81-.84,2.07-1,3.19a9.91,9.91,0,0,1-2,4.41,6.91,6.91,0,0,0-1.43,2.19,1.37,1.37,0,0,0,0,.85,1.88,1.88,0,0,0,.7.67,6.55,6.55,0,0,0,2.14,1c.49.14,1.12.67,1.6.51s.72-.74,1.16-1a2.19,2.19,0,0,1,1.72.07,1.69,1.69,0,0,0,1.68-.16,1.81,1.81,0,0,0,.33-.61,8.45,8.45,0,0,0,.4-1.86,2.82,2.82,0,0,1,.55-1.84,1.64,1.64,0,0,0,.29-.3c.22-.38-.15-.82-.33-1.22a2.89,2.89,0,0,1-.16-1.17C160.82,157.28,161.13,155.27,159.73,154.19Z" transform="translate(-38.7 -10.2)" fill="url(#linear-gradient-13)"></path><path d="M148.6,164.6a.9.9,0,0,0-.15.76.7.7,0,0,0,.64.35,14.45,14.45,0,0,1,5.45,1.32c.37.18.86.37,1.12,0a.9.9,0,0,0,0-.87,2,2,0,0,0-.57-.61,23.45,23.45,0,0,0-2.32-1.49C151.28,163.18,149.75,162.72,148.6,164.6Z" transform="translate(-38.7 -10.2)" fill="#fff"></path><path d="M154.35,194.74c.87,1.74,2.7,2.8.87,4.55-3.22,3.11-8.93,4.41-13.25,4.37a13.27,13.27,0,0,1-8.17-2.49,4.67,4.67,0,0,1-1.57-2,5.23,5.23,0,0,1-.26-1.62c-.57-10.19,3-20.23,8.14-29.07,1-1.7,2.25-3.52,4.18-3.81a6.86,6.86,0,0,1,2.07.13,120,120,0,0,1,13,3c3.2.93,5.51,4.36,6.53,7.41.89,2.62,1.23,5.4,2,8a2.14,2.14,0,0,0,.82,1.31,2,2,0,0,0,1.5.06,32.47,32.47,0,0,0,4.53-1.29,19.31,19.31,0,0,1,1.55,5.43,26.89,26.89,0,0,0-3.08,2.86,10.64,10.64,0,0,1-7.92,2.69,3.94,3.94,0,0,1-2.7-1.11,4.55,4.55,0,0,1-.81-1.79q-.67-2.38-1.18-4.81c-.18-.88-.35-1.76-.5-2.65-.1-.56,0-2.16-.41-2.57-1.08-1.25-1.53,1.46-1.72,2.06a34.69,34.69,0,0,1-1.92,4.79C155.08,190.24,153.25,192.55,154.35,194.74Z" transform="translate(-38.7 -10.2)" fill="#fff"></path><path d="M161,154.5a3.58,3.58,0,0,0,.07-2,6.76,6.76,0,0,0-1.47-2.61,8.58,8.58,0,0,0-5-3.25c-5.4-.88-11.68,4.63-13.73,9.18-1.29,2.86-1.68,6-2.4,9.09s-1.89,6.18-4.31,8.19c-1,.82-2.17,1.46-2.76,2.59a4.16,4.16,0,0,0,.66,4.36,11.12,11.12,0,0,0,3.1,2.3,7.13,7.13,0,0,1,2.33,2.83c1.24,2.4,1.73,5.14,3.26,7.4l2.21-1.22a20.39,20.39,0,0,0,5.18-3.6,7,7,0,0,0,2.08-5.74,27.21,27.21,0,0,0-1.29-3.61c-1.24-3.83,1.47-5.37,3.83-7.64a7.1,7.1,0,0,0,2-6.16,4,4,0,0,1-.13-1.51,4.64,4.64,0,0,1,1.22-1.86c1-1.22.21-2.8,1.4-3.92.92-.87,2.33-1,3.2-2A2.42,2.42,0,0,0,161,154.5Z" transform="translate(-38.7 -10.2)" fill="#2f3554"></path><path d="M134.5,181.1a20.08,20.08,0,0,1,1.33-3.94c2.52,1.79,4.37,5.3,5.3,8.26s1.69,6.05,3.59,8.5l2.05-.71.38,1.3c.3,1-.56,2.07-.47,3.1a2.79,2.79,0,0,0,2.11,2.21,7.07,7.07,0,0,0,3.62-.26,5.32,5.32,0,0,0,2.11-.92,2,2,0,0,0,.77-2,1.33,1.33,0,0,1,.56,1.5,3,3,0,0,1-1,1.39,16.3,16.3,0,0,1-5,2.63,26.74,26.74,0,0,1-2.61.89,27,27,0,0,1-6.2.63c-1.27,0-2-.17-2.59-1.42a18.2,18.2,0,0,1-1-5.75A102.08,102.08,0,0,0,134.5,181.1Z" transform="translate(-38.7 -10.2)" fill="url(#linear-gradient-14)"></path><path d="M126,209.33l-12.63,33.29a1.33,1.33,0,0,0,.78,1.7,1.65,1.65,0,0,0,.32.07h0a1.31,1.31,0,0,0,1.36-.84l12.64-33.28a1.3,1.3,0,0,0-.76-1.69h0a1.3,1.3,0,0,0-1.69.76Z" transform="translate(-38.7 -10.2)" fill="#1e3a8a"></path><path d="M142.89,211.06l3.24,34.67a1.42,1.42,0,0,1-1.34,1.49h-.21a1.22,1.22,0,0,1-1.1-1.09l-3.24-34.66a1.41,1.41,0,0,1,1.22-1.49h0a1.22,1.22,0,0,1,1.42,1S142.89,211,142.89,211.06Z" transform="translate(-38.7 -10.2)" fill="#1e3a8a"></path><path d="M132.12,210.1l-9.36,33.49a1.45,1.45,0,0,0,1.07,1.75l.18,0h0a1.16,1.16,0,0,0,1.27-.85L134.65,211a1.45,1.45,0,0,0-.93-1.71h0a1.19,1.19,0,0,0-1.55.66A.88.88,0,0,0,132.12,210.1Z" transform="translate(-38.7 -10.2)" fill="#1e3a8a"></path><path d="M149.44,212l8.48,35.17a1.19,1.19,0,0,1-.8,1.48,1.17,1.17,0,0,1-.49,0h0a1.45,1.45,0,0,1-1.24-1.1l-8.5-35.18a1.19,1.19,0,0,1,.83-1.47l.17,0h0A1.44,1.44,0,0,1,149.44,212Z" transform="translate(-38.7 -10.2)" fill="#1e3a8a"></path><path d="M147,185.27c-2.44-5.57-5.94-11.18-11.56-13.53-3.46-1.44-7.34-1.47-11.09-1.21a21.58,21.58,0,0,0-8.15,1.77,8.77,8.77,0,0,0-5,6.32,13.14,13.14,0,0,0,.53,4.79l3.84,16.24c.5,2.14,1.06,4.37,2.55,6a12.86,12.86,0,0,0,5.29,2.94c6.32,2.28,12.71,4.59,19.37,5.47s13.73.24,19.58-3.06c2.09-1.18,4.22-3.4,3.38-5.64-.66-1.73-2.76-2.39-4.61-2.5-4.84-.3-6.18-1-8.62-5.24C150.28,193.69,148.85,189.39,147,185.27Z" transform="translate(-38.7 -10.2)" fill="#505365"></path></svg>