<svg version="1.1" id="Layer_1" xmlns="http://www.w3.org/2000/svg" xmlns:xlink="http://www.w3.org/1999/xlink" x="0px" y="0px" viewBox="0 0 500 500" style="width: 161px;" xml:space="preserve" data-imageid="construction-site-1-2" imageName="Construction Site 1" class="illustrations_image">
<style type="text/css">
	.st0_construction-site-1-2{fill:#FFC9B0;}
	.st1_construction-site-1-2{fill:#093F68;}
	.st2_construction-site-1-2{fill:#FFFFFF;}
	.st3_construction-site-1-2{fill:#725858;}
	.st4_construction-site-1-2{fill:none;}
	.st5_construction-site-1-2{fill:#68E1FD;}
	.st6_construction-site-1-2{fill:#F56132;}
	.st7_construction-site-1-2{fill:#FFBC0E;}
</style>
<g id="character_construction-site-1-2">
	<path class="st0_construction-site-1-2" d="M187.8,293c-6.3,6.8-12.2,14-18.1,21.2l-26.9-24.4c-6.6-6-20-18.5-11.4-27.7c1.4-1.5,3.3-2.3,5.1-3.2&#10;&#9;&#9;c4-2.1,8-5.3,12.4-4.6c2.8,0.4,5,2.4,7.1,4.2c3.3,3,7,6,9.9,9.4c2.5,3,1.9,4.6,3.5,7.9s5.7,5.8,8.4,8.2L187.8,293z"/>
	<path class="st1_construction-site-1-2" d="M169.8,316c-0.4,0-0.9-0.2-1.2-0.5l-14.2-12.9l-12.7-11.5c-4.7-4.2-14.4-13-14.8-21.8&#10;&#9;&#9;c-0.1-3.2,1.1-6.3,3.3-8.5c1.3-1.3,2.9-2.3,4.6-3l1-0.5c0.8-0.4,1.6-0.9,2.4-1.4c3.3-1.9,7-4.1,11.2-3.4c3.2,0.5,5.7,2.6,8,4.7&#10;&#9;&#9;l2.3,2c2.8,2.3,5.4,4.8,7.7,7.5c1.3,1.5,2.3,3.4,2.7,5.3c0.3,1,0.6,2,1.1,2.9c0.9,1.9,3.3,3.9,5.5,5.6c0.9,0.7,1.8,1.4,2.5,2.1&#10;&#9;&#9;l10,9c0.7,0.7,0.8,1.8,0.1,2.6c0,0,0,0,0,0c-5.9,6.4-11.6,13.3-17.1,20l-0.9,1.1c-0.3,0.4-0.8,0.6-1.3,0.7L169.8,316z M144,288.5&#10;&#9;&#9;l12.7,11.5l12.8,11.6c5-6.2,10.2-12.5,15.7-18.5l-8.6-7.8c-0.7-0.6-1.5-1.3-2.4-2c-2.4-2-5.2-4.2-6.5-6.8c-0.5-1.1-1-2.3-1.3-3.5&#10;&#9;&#9;c-0.3-1.5-1-2.9-2-4c-2.3-2.6-4.7-4.9-7.4-7.1l-2.3-2.1c-2-1.8-3.9-3.4-6.2-3.8c-2.9-0.5-5.7,1.2-8.8,3c-0.8,0.5-1.7,1-2.5,1.4&#10;&#9;&#9;c-0.4,0.2-0.7,0.4-1.1,0.6c-1.3,0.6-2.5,1.3-3.6,2.3c-1.6,1.5-2.4,3.7-2.3,5.9C130.7,276.5,140,284.9,144,288.5L144,288.5z"/>
	<path class="st2_construction-site-1-2" d="M177.2,281.8c0,0,27.8,18.7,33,21.3c0,0,29.6-36.1,60.8-36.1h34.2c19.8,0,35.8,17.7,35.8,39.5v61.4h-101v-40&#10;&#9;&#9;c-14,8-21.9,12.6-28.4,14.1c-9,2.1-19.7-4.9-49.1-35.2L177.2,281.8z"/>
	<path class="st1_construction-site-1-2" d="M341.1,369.6H240.2c-1,0-1.8-0.8-1.8-1.8V331c-12.4,7-19.9,11.3-26.2,12.7c-10.2,2.4-21.6-5.6-50.8-35.7&#10;&#9;&#9;c-0.6-0.6-0.7-1.5-0.3-2.2l14.6-25c0.3-0.4,0.7-0.7,1.2-0.9c0.5-0.1,1,0,1.4,0.3c0.3,0.2,24.3,16.3,31.5,20.5&#10;&#9;&#9;c5.5-6.2,11.5-12,18-17.2c10.5-8.4,26.6-18.4,43.2-18.4h34.2c20.8,0,37.6,18.5,37.6,41.3v61.4C342.9,368.8,342.1,369.6,341.1,369.6&#10;&#9;&#9;C341.1,369.6,341.1,369.6,341.1,369.6z M242,366h97.3v-59.5c0-20.8-15.3-37.7-34-37.7H271c-30,0-59.1,35.1-59.4,35.4&#10;&#9;&#9;c-0.5,0.7-1.5,0.8-2.2,0.5c-4.5-2.3-25.5-16.3-31.6-20.3l-12.9,22.1c26.8,27.4,38.1,35.6,46.5,33.7c5.8-1.3,13.2-5.5,25.4-12.5&#10;&#9;&#9;l2.4-1.4c0.9-0.5,2-0.2,2.5,0.7c0.2,0.3,0.2,0.6,0.2,0.9L242,366z"/>
	<path class="st0_construction-site-1-2" d="M288.4,280.8l-9.9-1.4c-2.4-0.3-4.1-2.6-3.8-5l0,0l2-14.3l0,0l18.6,2.6l0,0l-2,14.3&#10;&#9;&#9;C293,279.5,290.8,281.2,288.4,280.8L288.4,280.8L288.4,280.8z"/>
	<path class="st1_construction-site-1-2" d="M286,282.2c-0.5,0-0.9,0-1.4-0.1l-2.8-0.4l0,0c-5.4-0.8-9.1-5.7-8.4-11l1.4-10.7c0.1-0.5,0.3-0.9,0.7-1.2&#10;&#9;&#9;c0.4-0.3,0.9-0.4,1.3-0.4l18.6,2.6c1,0.1,1.7,1,1.5,2l-1.5,10.7C295,278.5,290.8,282.1,286,282.2L286,282.2z M282.3,278.2l2.8,0.4&#10;&#9;&#9;c1.6,0.2,3.3-0.2,4.6-1.2c1.3-1,2.1-2.5,2.3-4.1l1.2-8.9l-15-2.1l-1.2,8.9c-0.5,3.4,1.8,6.5,5.2,7&#10;&#9;&#9;C282.2,278.2,282.2,278.2,282.3,278.2L282.3,278.2z"/>
	<ellipse transform="matrix(0.14 -0.9901 0.9901 0.14 7.4835 419.4266)" class="st0_construction-site-1-2" cx="245.2" cy="205.4" rx="15.7" ry="14.1"/>
	<path class="st1_construction-site-1-2" d="M244.4,222.4c-0.7,0-1.3-0.1-2-0.1c-4.3-0.6-8.1-3.1-10.5-6.7c-5.1-7.9-3.6-18.3,3.4-24.4&#10;&#9;&#9;c3.3-2.9,7.6-4.2,11.9-3.6c8.7,1.2,14.7,10,13.3,19.6c-0.6,4.5-2.8,8.6-6.2,11.6C251.5,221,248,222.3,244.4,222.4z M245.2,190.9&#10;&#9;&#9;c-2.8,0-5.5,1-7.6,2.9c-2.8,2.4-4.5,5.7-5,9.3l0,0c-0.5,3.6,0.3,7.3,2.3,10.3c3.3,5.3,10.3,6.8,15.5,3.5c0.5-0.3,1.1-0.7,1.5-1.2&#10;&#9;&#9;c2.8-2.4,4.5-5.7,5-9.3c1.1-7.6-3.5-14.6-10.2-15.5C246.2,191,245.7,191,245.2,190.9L245.2,190.9z M230.8,202.9L230.8,202.9z"/>
	<path class="st0_construction-site-1-2" d="M357.9,169c-1.3,15.7-4,43.3-10.9,56.8c-11.8,23.4-37,43.5-61,40.2c-20.9-2.9-35.6-16.6-41.3-34.6&#10;&#9;&#9;c-2.7-8.7-3.5-18-2.2-27c0,0-0.8-6.6,4-31.4s7.5-37.6,56.4-38.7C340.6,133.5,359.1,153.3,357.9,169z"/>
	<path class="st1_construction-site-1-2" d="M290.9,268.1c-1.7,0-3.4-0.1-5.1-0.4c-20.5-2.8-36.5-16.3-42.8-35.9c-2.8-8.9-3.6-18.4-2.2-27.6&#10;&#9;&#9;c-0.1-1.5-0.3-9.2,4.1-31.7c4.7-24.4,7.5-39.1,58.2-40.2c28.4-0.6,42.6,10,48.6,16.3c5.8,6.2,8.7,13.4,8.2,20.4l0,0&#10;&#9;&#9;c-2.3,28.5-5.9,47.4-11.1,57.5C334.5,254.7,309.9,268.1,290.9,268.1z M305,136.1c-0.7,0-1.4,0-2.1,0c-47.7,1-50,13.1-54.7,37.2&#10;&#9;&#9;c-4.6,23.9-4,30.8-4,30.9c0,0.1,0,0.3,0,0.4c-1.3,8.8-0.6,17.8,2.1,26.2c5.9,18.2,20.8,30.7,39.9,33.4&#10;&#9;&#9;c23.9,3.3,48.3-17.7,59.2-39.2c7.3-14.5,9.9-45.9,10.7-56.2l0,0c0.5-5.9-2.1-12.2-7.2-17.6C339.7,141.6,323.8,136.1,305,136.1z&#10;&#9;&#9; M357.9,169L357.9,169z"/>
	<path class="st3_construction-site-1-2" d="M266.8,221.9c6.5-1.3,24.1-0.9,32.5,4.8c11,7.5,4.1,16.2,13.8,14.3c6.8-1.3,8.7-1.7,13.3-6.9&#10;&#9;&#9;c6-6.9,5.8-17.1,7.3-25.8c0.5-3.1,1.1-6.2,2.7-8.8c2.7-4.4,7.7-6.7,12.8-6c17.3,2.8,7.6,25.4,4.9,35.6l-7.5-1l-0.6,6.1&#10;&#9;&#9;C334,257.5,310,269.4,286,266c-20.9-2.9-35.6-16.6-41.3-34.6c2.2,0.7,4.5,1.3,6.9,1.8c6.6,1.1,4-5.1,10-9.2&#10;&#9;&#9;C263.1,222.9,264.9,222.2,266.8,221.9z"/>
	<path class="st1_construction-site-1-2" d="M294.2,268.4c-2.8,0-5.6-0.2-8.4-0.6c-20.5-2.8-36.5-16.3-42.8-35.9c-0.2-0.6,0-1.4,0.4-1.8&#10;&#9;&#9;c0.5-0.5,1.2-0.7,1.8-0.4c2.2,0.7,4.4,1.3,6.6,1.7c2.4,0.4,2.6-0.1,3.6-2.4c1-2.6,2.7-4.9,5-6.5c1.8-1.2,3.9-2,6-2.4&#10;&#9;&#9;c7.1-1.4,25.1-0.9,33.9,5.1c4,2.6,6.9,6.7,8,11.3c0.9,3,1,3.4,4.4,2.7l0.3-0.1c6.4-1.3,7.9-1.6,12-6.2c4.3-4.9,5.2-12,6-18.9&#10;&#9;&#9;c0.2-2,0.5-4,0.8-6c0.5-3,1.1-6.5,2.9-9.5c3.1-5,8.8-7.7,14.6-6.8c4.4,0.7,7.5,2.6,9.5,5.7c4.5,7.2,0.9,18.9-1.7,27.5&#10;&#9;&#9;c-0.5,1.7-1,3.3-1.4,4.7c-0.2,0.9-1.1,1.5-2,1.3l-5.7-0.8l-0.4,4.3c0,0.2-0.1,0.4-0.2,0.6C336.9,255.9,316.6,268.4,294.2,268.4z&#10;&#9;&#9; M247.5,234.1c6.5,16.4,20.8,27.6,38.7,30.1c24,3.3,46.6-8.7,57.9-30.6l0.6-5.8c0.1-0.5,0.3-0.9,0.7-1.2c0.4-0.3,0.9-0.4,1.4-0.4&#10;&#9;&#9;l6,0.8c0.3-1,0.6-2.1,1-3.2c2.4-7.9,5.7-18.7,2.1-24.5c-1.4-2.2-3.6-3.5-7-4c-4.3-0.6-8.6,1.4-10.9,5.1c-1.4,2.4-2,5.4-2.5,8.2&#10;&#9;&#9;c-0.3,1.9-0.6,3.8-0.8,5.8c-0.9,7.4-1.9,15.1-6.9,20.8s-7.4,6.1-14,7.4l-0.3,0.1c-6.7,1.3-7.7-2.2-8.6-5.2&#10;&#9;&#9;c-0.9-3.9-3.2-7.2-6.6-9.4c-7.5-5.1-24.4-5.8-31.1-4.5l0,0c-1.6,0.3-3.2,0.9-4.6,1.8c-1.7,1.3-3,3-3.8,5c-1.1,2.4-2.4,5.4-7.6,4.5&#10;&#9;&#9;C250.1,234.8,248.9,234.5,247.5,234.1L247.5,234.1z M266.8,221.9L266.8,221.9z"/>
	
		<ellipse transform="matrix(0.1378 -0.9905 0.9905 0.1378 62.0648 481.7679)" class="st1_construction-site-1-2" cx="307.7" cy="205.2" rx="5.1" ry="5.1"/>
	<circle class="st1_construction-site-1-2" cx="264.8" cy="199.9" r="5.1"/>
	<path class="st1_construction-site-1-2" d="M293.6,217.8L293.6,217.8c-0.3,0-7.5-0.1-12.5-1.8c-1.1-0.3-2-1.2-2.3-2.4c-1-3.9,5.6-11.1,8.5-14&#10;&#9;&#9;c0.7-0.7,1.9-0.7,2.6,0c0.7,0.7,0.7,1.9,0,2.6c-4,4.1-7.5,8.9-7.6,10.5c4.6,1.4,11.3,1.6,11.4,1.6c1,0,1.8,0.8,1.8,1.8&#10;&#9;&#9;C295.4,217,294.6,217.8,293.6,217.8L293.6,217.8z M282.2,212.8L282.2,212.8z"/>
	<path class="st1_construction-site-1-2" d="M325,200.6c-1.7,0-3.1-1.1-3.5-2.8c-0.1-0.5-1.5-4.7-7.7-5.5c-7.1-0.9-9.8,1.6-9.9,1.8&#10;&#9;&#9;c-1.3,1.5-3.6,1.6-5.1,0.2c0,0,0,0,0,0c-1.5-1.4-1.6-3.7-0.2-5.2c0.5-0.6,5.2-5.4,16.1-4c11.5,1.5,13.7,10.6,13.8,11&#10;&#9;&#9;c0.4,1.9-0.8,3.9-2.7,4.3c0,0,0,0,0,0C325.5,200.5,325.3,200.6,325,200.6z"/>
	<path class="st1_construction-site-1-2" d="M275.4,190.8c-1.1,0-2.1-0.5-2.8-1.3c-2.4-2.5-5.6-4.1-9.1-4.5c-4.2-0.4-5.2,1.3-5.2,1.4&#10;&#9;&#9;c0-0.1,0.1-0.1,0.1-0.2l-6.7-2.6c1-2.5,4.7-6.5,12.6-5.8c5.4,0.6,10.4,3.1,14,7.1c1.3,1.5,1.2,3.8-0.3,5.1&#10;&#9;&#9;C277.2,190.5,276.3,190.9,275.4,190.8L275.4,190.8z"/>
	<path class="st0_construction-site-1-2" d="M341.9,208.5c0,0,14.6-7.4,20.1,5.5s-4.2,32.2-25.4,23.2L341.9,208.5z"/>
	<path class="st1_construction-site-1-2" d="M346.9,241.3c-3.8-0.1-7.5-0.9-11-2.5c-0.8-0.3-1.2-1.2-1.1-2l5.3-28.7c0.1-0.6,0.5-1,1-1.3&#10;&#9;&#9;c0.3-0.2,7.9-3.9,14.8-1.4c3.6,1.4,6.5,4.2,7.8,7.9c3.3,7.7,1.6,17.1-4.1,22.9C356.3,239.5,351.7,241.4,346.9,241.3z M338.7,236.1&#10;&#9;&#9;c7.5,2.8,14,1.9,18.4-2.5c4.6-4.6,6-12.6,3.3-18.9c-1-2.7-3.1-4.8-5.7-5.9c-4.3-1.6-9.2,0.1-11.1,0.9L338.7,236.1z"/>
	<path class="st2_construction-site-1-2" d="M296.1,237.2l-18.8-2.9c0,0-0.5,15.6,7.2,17.6S296.1,237.2,296.1,237.2z"/>
	<path class="st1_construction-site-1-2" d="M285.9,254c-0.6,0-1.2-0.1-1.8-0.2c-8.8-2.4-8.6-17.7-8.5-19.4c0-1,0.9-1.8,1.9-1.8c0.1,0,0.1,0,0.2,0&#10;&#9;&#9;l18.8,2.9c0.5,0.1,0.9,0.4,1.2,0.8c0.3,0.4,0.4,0.9,0.3,1.4c-0.3,1.2-3,12-8.5,15.4C288.3,253.6,287.1,254,285.9,254z M279.2,236.5&#10;&#9;&#9;c0.2,4.7,1.5,12.6,5.8,13.8c0.8,0.2,1.7,0.1,2.5-0.4c3-1.8,5.3-7.6,6.4-11.2L279.2,236.5z"/>
	<line class="st4_construction-site-1-2" x1="240.2" y1="327.8" x2="240.2" y2="293.4"/>
	<path class="st1_construction-site-1-2" d="M240.2,329.6c-1,0-1.8-0.8-1.8-1.8v-34.4c0-1,0.8-1.8,1.8-1.8c1,0,1.8,0.8,1.8,1.8c0,0,0,0,0,0v34.4&#10;&#9;&#9;C242,328.8,241.2,329.6,240.2,329.6z"/>
	<path class="st5_construction-site-1-2 targetColor" d="M301.4,96.1l17.9,2.3c27.8,3.6,47.5,29.1,43.9,56.9c0,0,0,0,0,0l-1.6,12.4l0,0l-116.6-15l0,0l1.9-14.5&#10;&#9;&#9;C250.3,111.5,274.7,92.7,301.4,96.1L301.4,96.1L301.4,96.1z" style="fill: rgb(37, 57, 133);"/>
	<path class="st1_construction-site-1-2" d="M361.7,169.5h-0.2l-116.6-15c-1-0.1-1.7-1-1.6-2l1.8-14.1c3.6-27.9,29.1-47.6,57-44c0,0,0,0,0,0l19.2,2.5&#10;&#9;&#9;c27.9,3.6,47.5,29.1,44,57l-1.8,14.1C363.3,168.9,362.6,169.5,361.7,169.5z M247.1,151.1l113,14.6l1.6-12.3&#10;&#9;&#9;c3.3-25.9-15-49.6-40.9-52.9L301.6,98l0,0c-25.9-3.3-49.6,14.9-52.9,40.8c0,0,0,0,0,0L247.1,151.1z"/>
	<path class="st5_construction-site-1-2 targetColor" d="M237.3,151.7l132.1,17c3.3,0.4,5.7,3.5,5.2,6.8l-1.3,9.8c-0.4,3.3-3.5,5.7-6.8,5.2l-132.1-17&#10;&#9;&#9;c-3.3-0.4-5.7-3.5-5.2-6.8l1.3-9.8C230.9,153.6,233.9,151.2,237.3,151.7z" style="fill: rgb(37, 57, 133);"/>
	<path class="st1_construction-site-1-2" d="M363.1,191.7c-0.5,0-1.1,0-1.6-0.1l-122.4-15.8c-7-0.9-12-7.3-11.1-14.3c0.4-3.4,2.2-6.4,4.9-8.5&#10;&#9;&#9;c2.7-2.1,6.1-3,9.4-2.6l122.4,15.8c7,0.9,12,7.3,11.1,14.3C375,186.9,369.6,191.7,363.1,191.7z M362,188c5,0.6,9.6-2.9,10.3-7.9&#10;&#9;&#9;c0.6-5-2.9-9.6-7.9-10.3l-122.4-15.7c-5-0.6-9.6,2.9-10.3,7.9c-0.6,5,2.9,9.6,7.9,10.3L362,188z"/>
	<path class="st5_construction-site-1-2 targetColor" d="M310.8,90l3.1,0.4c8.9,1.1,15.2,9.3,14.1,18.2v0l-6.9,53.9l0,0l-35.4-4.6l0,0l6.9-53.9&#10;&#9;&#9;C293.7,95.1,301.9,88.8,310.8,90C310.8,90,310.8,90,310.8,90z" style="fill: rgb(37, 57, 133);"/>
	<path class="st1_construction-site-1-2" d="M321,164.2h-0.2l-35.4-4.6c-1-0.1-1.7-1-1.6-2l6.7-52.3c1.4-10.8,11.2-18.4,22-17l0,0&#10;&#9;&#9;c10.8,1.4,18.4,11.2,17,22l-6.7,52.3C322.7,163.6,321.9,164.3,321,164.2z M287.6,156.3l31.8,4.1l6.6-50.5&#10;&#9;&#9;c1.1-8.8-5.1-16.8-13.9-17.9c-8.8-1.1-16.8,5.1-17.9,13.9l0,0L287.6,156.3z"/>
	<rect x="249.7" y="266.4" class="st6_construction-site-1-2" width="15.3" height="44.3"/>
	<path class="st1_construction-site-1-2" d="M265,312.4h-15.3c-1,0-1.8-0.8-1.8-1.8v-44.3c0-1,0.8-1.8,1.8-1.8H265c1,0,1.8,0.8,1.8,1.8v44.3&#10;&#9;&#9;C266.8,311.6,266,312.4,265,312.4z M251.5,308.8h11.6v-40.6h-11.7L251.5,308.8z"/>
	<rect x="304.9" y="266.9" class="st6_construction-site-1-2" width="15.3" height="43.7"/>
	<path class="st1_construction-site-1-2" d="M320.1,312.4h-15.3c-1,0-1.8-0.8-1.8-1.8c0,0,0,0,0,0v-43.7c0-1,0.8-1.8,1.8-1.8c0,0,0,0,0,0h15.3&#10;&#9;&#9;c1,0,1.8,0.8,1.8,1.8v43.7C321.9,311.6,321.1,312.4,320.1,312.4z M306.7,308.8h11.6v-40.1h-11.6L306.7,308.8z"/>
	<rect x="240.2" y="310.6" class="st6_construction-site-1-2" width="88.5" height="57.9"/>
	<path class="st1_construction-site-1-2" d="M328.6,370.3h-88.5c-1,0-1.8-0.8-1.8-1.8v-57.9c0-1,0.8-1.8,1.8-1.8h88.5c1,0,1.8,0.8,1.8,1.8v57.9&#10;&#9;&#9;C330.4,369.5,329.6,370.3,328.6,370.3z M242,366.7h84.8v-54.3H242V366.7z"/>
	<path class="st0_construction-site-1-2" d="M362.1,366.4l-20.9-4.7c-2.1-0.5-3.4-2.6-2.9-4.7l6.6-29c0.5-2.1,2.6-3.4,4.7-2.9l20.9,4.7&#10;&#9;&#9;c2.1,0.5,3.4,2.6,2.9,4.7l-6.6,29C366.3,365.6,364.2,366.9,362.1,366.4z"/>
	<path class="st1_construction-site-1-2" d="M360.6,367.7c-0.7,0-1.3-0.1-2-0.2l-14.8-3.4c-4.8-1.1-7.7-5.8-6.7-10.6l5.2-22.9c1.1-4.8,5.8-7.8,10.5-6.7&#10;&#9;&#9;c0,0,0.1,0,0.1,0l14.8,3.3c4.8,1.1,7.8,5.8,6.7,10.6c0,0,0,0,0,0.1l-5.2,22.9C368.3,364.9,364.7,367.7,360.6,367.7z M351,327.4&#10;&#9;&#9;c-2.4,0-4.5,1.7-5.1,4.1l-5.2,22.9c-0.6,2.8,1.1,5.6,3.9,6.3l0,0l14.8,3.4c2.8,0.6,5.6-1.1,6.3-3.9c0,0,0,0,0,0l5.2-22.9&#10;&#9;&#9;c0.7-2.8-1.1-5.6-3.9-6.3c0,0,0,0,0,0l-14.8-3.4C351.8,327.5,351.4,327.4,351,327.4z"/>
	<path class="st2_construction-site-1-2" d="M404.4,310.4L349,281.7c-1.5-0.8-2.1-2.7-1.3-4.2c0.1-0.3,0.3-0.5,0.6-0.8l32.1-31.4l38.8-37.9&#10;&#9;&#9;c1.2-1.2,3.2-1.2,4.4,0c0.7,0.7,1,1.7,0.9,2.7l-7.1,44.6l-8.5,53.3c-0.3,1.7-1.9,2.9-3.6,2.6C405,310.6,404.7,310.5,404.4,310.4z"/>
	<path class="st1_construction-site-1-2" d="M405.8,312.5c-0.8,0-1.6-0.2-2.3-0.6l0,0l-55.4-28.6c-2.4-1.3-3.4-4.3-2-6.8c0.2-0.4,0.5-0.8,0.9-1.2&#10;&#9;&#9;l70.9-69.3c2-1.9,5.1-1.9,7,0.1c1.1,1.1,1.6,2.7,1.4,4.2l-15.6,98C410.3,310.8,408.3,312.5,405.8,312.5L405.8,312.5z M405.2,308.8&#10;&#9;&#9;c0.4,0.2,0.8,0.2,1.2,0c0.4-0.2,0.7-0.6,0.7-1l15.6-98c0.1-0.6-0.2-1.1-0.7-1.4c-0.5-0.3-1.1-0.2-1.5,0.2l-71,69.3&#10;&#9;&#9;c-0.3,0.3-0.5,0.7-0.4,1.1c0.1,0.4,0.3,0.8,0.7,1L405.2,308.8z"/>
	<path class="st2_construction-site-1-2" d="M383.2,280.6l2.4,1.2c0.8,0.4,1.1,1.4,0.7,2.2L369,317.3l0,0l-5.3-2.8l0,0l17.2-33.3&#10;&#9;&#9;C381.3,280.5,382.3,280.1,383.2,280.6C383.2,280.6,383.2,280.6,383.2,280.6z"/>
	<path class="st1_construction-site-1-2" d="M369,319.2c-0.3,0-0.6-0.1-0.8-0.2l-5.3-2.7c-0.9-0.5-1.2-1.5-0.8-2.4c0,0,0,0,0,0l16.6-32.1&#10;&#9;&#9;c1.2-2.4,4.1-3.3,6.5-2.1s3.3,4.1,2.1,6.5l-16.6,32.1C370.3,318.8,369.7,319.2,369,319.2z M366.1,313.8l2.1,1.1l15.8-30.5&#10;&#9;&#9;c0.2-0.3,0.2-0.6,0.1-0.9c-0.1-0.3-0.3-0.5-0.6-0.7l0,0c-0.3-0.2-0.6-0.2-0.9-0.1c-0.3,0.1-0.5,0.3-0.7,0.6L366.1,313.8z"/>
	<path class="st6_construction-site-1-2" d="M360.2,342.6c3.9-7.6,8.8-14,12-19.4c1.3-2.1,0.5-4.9-1.6-6.1c-0.1,0-0.1-0.1-0.2-0.1l-7.2-3.8&#10;&#9;&#9;c-2.2-1.1-4.9-0.3-6.1,1.9c0,0.1-0.1,0.1-0.1,0.2c-2.5,5.8-4.9,13.4-8.9,21c-9.4,18.1-31.8,25.2-11,36S350.9,360.8,360.2,342.6z"/>
	<path class="st1_construction-site-1-2" d="M346.1,377c-2.6,0-5.8-1-9.7-3c-5.9-3-8.9-6.1-9.5-9.5c-0.8-4.8,3.2-9,8.2-14.3c3.9-4.1,8.4-8.8,11.4-14.6&#10;&#9;&#9;c2.3-4.5,4.3-9.2,6-13.9c1-2.5,1.9-4.9,2.8-7c0.7-1.6,2-2.8,3.6-3.4c1.6-0.6,3.5-0.4,5,0.4l7.2,3.7c1.6,0.8,2.7,2.2,3.2,3.9&#10;&#9;&#9;c0.5,1.6,0.3,3.4-0.6,4.9c-1.2,2-2.6,4.1-4.1,6.4c-2.9,4.2-5.5,8.5-7.9,12.9c-3,5.9-4.3,12.2-5.4,17.8c-1.4,7.2-2.5,12.9-6.9,15&#10;&#9;&#9;C348.5,376.8,347.3,377,346.1,377z M361.1,314.6c-0.3,0-0.6,0.1-0.9,0.1c-0.7,0.2-1.2,0.7-1.5,1.4c-0.9,2-1.8,4.4-2.8,6.9&#10;&#9;&#9;c-1.8,4.9-3.8,9.6-6.1,14.3c-3.3,6.3-7.9,11.2-12,15.5s-7.8,8.2-7.3,11.2c0.4,2.1,2.9,4.5,7.6,6.9s8,3.1,10,2.2&#10;&#9;&#9;c2.7-1.3,3.8-6.5,4.9-12.4s2.4-12.4,5.7-18.8l0,0c2.4-4.6,5.1-9,8.1-13.2c1.5-2.2,2.9-4.3,4-6.2c0.4-0.6,0.5-1.4,0.3-2&#10;&#9;&#9;c-0.2-0.7-0.7-1.3-1.4-1.7l-7.2-3.8C362,314.7,361.6,314.5,361.1,314.6L361.1,314.6z"/>
	<path class="st7_construction-site-1-2" d="M417.4,254.7c-2.8-0.1-5.6-0.7-8.2-1.8c-7.9-3.7,0.1-15.9-10.7-5.5c-10.8,10.4-18.1-2.1-18.1-2.1l38.8-37.9&#10;&#9;&#9;c1.2-1.2,3.2-1.2,4.4,0c0.7,0.7,1,1.7,0.9,2.7L417.4,254.7z"/>
	<path class="st1_construction-site-1-2" d="M417.4,256.5h-0.1c-3-0.1-6-0.8-8.8-2c-4.4-2.1-4.9-6.1-5.2-8.6c0-0.1,0-0.2,0-0.4c-1.2,0.9-2.4,1.9-3.5,3&#10;&#9;&#9;c-3.6,3.5-7.4,5.1-11.1,4.5c-6.1-0.8-9.6-6.7-9.8-7c-0.4-0.7-0.3-1.6,0.3-2.2L418,206c2-1.9,5.1-1.9,7,0.1c1.1,1.1,1.6,2.7,1.4,4.2&#10;&#9;&#9;l-7.1,44.7C419,255.9,418.3,256.5,417.4,256.5z M403.9,241.4c0.3,0,0.6,0.1,0.9,0.1c1.6,0.6,1.9,2.3,2,3.9c0.3,2.6,0.8,4.6,3.1,5.8&#10;&#9;&#9;c1.9,0.8,3.9,1.3,5.9,1.5l6.8-43c0.1-0.6-0.2-1.1-0.7-1.4c-0.5-0.3-1.1-0.2-1.5,0.2l-37.7,36.8c1.1,1.4,3.4,3.7,6.3,4.1&#10;&#9;&#9;c2.6,0.4,5.3-0.9,8.1-3.6C400.7,242.7,402.5,241.4,403.9,241.4z"/>
	<path class="st0_construction-site-1-2" d="M368.8,345.7l-18.2-5.3c-1.1-0.3-1.7-1.5-1.4-2.6l1.1-3.8c0.3-1.1,1.5-1.7,2.6-1.4l18.2,5.3&#10;&#9;&#9;c1.1,0.3,1.7,1.5,1.4,2.6l-1.1,3.8C371,345.4,369.9,346.1,368.8,345.7z"/>
	<path class="st1_construction-site-1-2" d="M368.2,347.3c-0.5,0-1-0.1-1.5-0.2l-15-4.4l0,0c-3-0.9-4.6-4-3.8-6.9l0.2-0.6c0.9-2.9,4-4.6,6.9-3.8l15,4.4&#10;&#9;&#9;c3,0.9,4.7,4,3.8,6.9l-0.2,0.6C372.8,345.6,370.7,347.3,368.2,347.3z M352.7,339.2l15,4.4c1,0.3,2.1-0.3,2.4-1.3c0,0,0,0,0,0&#10;&#9;&#9;l0.2-0.6c0.3-1-0.3-2.1-1.3-2.4l-15-4.4c-0.5-0.1-1-0.1-1.5,0.2c-0.4,0.3-0.8,0.7-0.9,1.2l-0.2,0.6c-0.1,0.5-0.1,1,0.2,1.5&#10;&#9;&#9;C351.7,338.7,352.2,339.1,352.7,339.2L352.7,339.2z"/>
	<path class="st0_construction-site-1-2" d="M366.5,353.6l-18.2-5.3c-1.1-0.3-1.7-1.5-1.4-2.6l1.1-3.8c0.3-1.1,1.5-1.7,2.6-1.4l18.2,5.3&#10;&#9;&#9;c1.1,0.3,1.7,1.5,1.4,2.6l-1.1,3.8C368.8,353.3,367.6,353.9,366.5,353.6z"/>
	<path class="st1_construction-site-1-2" d="M365.9,355.1c-0.5,0-1.1-0.1-1.6-0.2l-15-4.4c-2.9-0.9-4.6-3.9-3.8-6.9c0,0,0,0,0,0l0.2-0.6&#10;&#9;&#9;c0.9-2.9,3.9-4.6,6.9-3.8c0,0,0,0,0,0l15,4.4c3,0.9,4.6,4,3.8,6.9l-0.2,0.6C370.5,353.5,368.4,355.1,365.9,355.1z M351.1,342.6&#10;&#9;&#9;c-0.3,0-0.7,0.1-0.9,0.2c-0.5,0.2-0.8,0.7-0.9,1.2l-0.2,0.6c-0.1,0.5-0.1,1,0.2,1.5c0.2,0.5,0.7,0.8,1.2,0.9l0,0l15,4.4&#10;&#9;&#9;c1,0.3,2.1-0.3,2.4-1.3l0.2-0.6c0.3-1-0.3-2.1-1.3-2.4l-15-4.4C351.5,342.6,351.3,342.6,351.1,342.6L351.1,342.6z"/>
	<path class="st0_construction-site-1-2" d="M364.2,361.4l-18.2-5.3c-1.1-0.3-1.7-1.5-1.4-2.6l1.1-3.8c0.3-1.1,1.5-1.7,2.6-1.4l18.2,5.3&#10;&#9;&#9;c1.1,0.3,1.7,1.5,1.4,2.6l-1.1,3.8C366.5,361.1,365.3,361.8,364.2,361.4z"/>
	<path class="st1_construction-site-1-2" d="M363.6,362.9c-0.5,0-1-0.1-1.5-0.2l-15-4.4l0,0c-3-0.9-4.6-4-3.8-6.9l0.2-0.6c0.9-3,3.9-4.7,6.9-3.8l15,4.4&#10;&#9;&#9;c1.4,0.4,2.6,1.4,3.3,2.7c0.7,1.3,0.9,2.8,0.5,4.2l-0.2,0.6C368.3,361.3,366.1,362.9,363.6,362.9z M348.1,354.9l15,4.4&#10;&#9;&#9;c1,0.3,2.1-0.3,2.4-1.3l0.2-0.6c0.1-0.5,0.1-1-0.2-1.5c-0.3-0.5-0.7-0.8-1.2-0.9l-15-4.4c-0.5-0.1-1-0.1-1.5,0.2&#10;&#9;&#9;c-0.5,0.3-0.8,0.7-0.9,1.2l-0.2,0.6C346.5,353.5,347,354.6,348.1,354.9C348.1,354.9,348.1,354.9,348.1,354.9L348.1,354.9z"/>
	<path class="st0_construction-site-1-2" d="M361.9,369.3l-18.2-5.3c-1.1-0.3-1.7-1.5-1.4-2.6l1.1-3.8c0.3-1.1,1.5-1.7,2.6-1.4l18.2,5.3&#10;&#9;&#9;c1.1,0.3,1.7,1.5,1.4,2.6l-1.1,3.8C364.2,369,363,369.6,361.9,369.3z"/>
	<path class="st1_construction-site-1-2" d="M361.3,370.8c-0.5,0-1-0.1-1.5-0.2l-15-4.4c-3-0.9-4.7-4-3.8-6.9l0.2-0.6c0.9-2.9,4-4.6,6.9-3.8l15,4.4&#10;&#9;&#9;c2.9,0.9,4.6,3.9,3.8,6.9c0,0,0,0,0,0l-0.2,0.6C366,369.1,363.8,370.8,361.3,370.8z M346.5,358.3c-0.9,0-1.6,0.6-1.9,1.4l-0.2,0.6&#10;&#9;&#9;c-0.1,0.5-0.1,1,0.2,1.5c0.3,0.5,0.7,0.8,1.2,0.9l0,0l15,4.4c1,0.3,2.1-0.3,2.4-1.3c0,0,0,0,0,0l0.2-0.6c0.3-1-0.3-2.1-1.3-2.4&#10;&#9;&#9;l-15-4.4C346.9,358.3,346.7,358.3,346.5,358.3L346.5,358.3z"/>
	<path class="st1_construction-site-1-2" d="M284.9,353.1c-13.4,0-24.3-10.9-24.4-24.4v-1.9c0-1,0.8-1.8,1.8-1.8c0,0,0,0,0,0h45.1c1,0,1.8,0.8,1.8,1.8v1.9&#10;&#9;&#9;C309.2,342.2,298.3,353.1,284.9,353.1z M264.1,328.6v0.1c0,11.4,9.3,20.7,20.7,20.7c11.4,0,20.7-9.3,20.7-20.7c0,0,0,0,0,0v-0.1&#10;&#9;&#9;H264.1z"/>
	<path class="st5_construction-site-1-2 targetColor" d="M115.9,237.9h81.7c1.2,0,2.1,0.9,2.1,2.1v33.6c0,1.2-0.9,2.1-2.1,2.1h-81.7c-1.2,0-2.1-0.9-2.1-2.1V240&#10;&#9;&#9;C113.8,238.8,114.8,237.9,115.9,237.9z" style="fill: rgb(37, 57, 133);"/>
	<path class="st1_construction-site-1-2" d="M196,277.5h-78.3c-3.1,0-5.6-2.5-5.6-5.6v-30.2c0-3.1,2.5-5.6,5.6-5.6H196c3.1,0,5.6,2.5,5.6,5.6v30.2&#10;&#9;&#9;C201.6,275,199.1,277.5,196,277.5z M117.7,239.7c-1.1,0-2,0.9-2,2v30.2c0,1.1,0.9,2,2,2H196c1.1,0,2-0.9,2-2v-30.2c0-1.1-0.9-2-2-2&#10;&#9;&#9;H117.7z"/>
	<path class="st0_construction-site-1-2" d="M159.8,284.5c0,0-9.8-17.1-6-18.1s16.3,15.3,16.3,15.3"/>
	<path class="st1_construction-site-1-2" d="M159.8,286.3c-0.6,0-1.2-0.3-1.6-0.9c-2.6-4.5-8.4-15.3-6.8-19.1c0.3-0.8,1.1-1.5,1.9-1.7&#10;&#9;&#9;c2.3-0.6,7.3,1.7,18.2,16c0.6,0.8,0.5,1.9-0.3,2.5s-1.9,0.5-2.5-0.3l0,0c-5.5-7.2-11.6-13.5-13.9-14.5c0.2,2.3,3,9,6.6,15.3&#10;&#9;&#9;c0.5,0.9,0.2,2-0.7,2.5c0,0,0,0,0,0C160.4,286.2,160.1,286.3,159.8,286.3z"/>
</g>
<g id="bricks_construction-site-1-2">
	<rect x="71.6" y="324.9" class="st5_construction-site-1-2 targetColor" width="177.8" height="85.1" style="fill: rgb(37, 57, 133);"/>
	<path class="st1_construction-site-1-2" d="M249.4,411.8H71.6c-1,0-1.8-0.8-1.8-1.8v-85.1c0-1,0.8-1.8,1.8-1.8h177.8c1,0,1.8,0.8,1.8,1.8V410&#10;&#9;&#9;C251.3,411,250.4,411.8,249.4,411.8z M73.4,408.2h174.2v-81.5H73.4L73.4,408.2z"/>
	<rect x="234" y="365.3" class="st5_construction-site-1-2 targetColor" width="190.5" height="44.7" style="fill: rgb(37, 57, 133);"/>
	<path class="st1_construction-site-1-2" d="M424.5,411.8H234c-1,0-1.8-0.8-1.8-1.8v-44.7c0-1,0.8-1.8,1.8-1.8h190.5c1,0,1.8,0.8,1.8,1.8V410&#10;&#9;&#9;C426.3,411,425.5,411.8,424.5,411.8z M235.8,408.2h186.9v-41.1H235.8L235.8,408.2z"/>
	<rect x="71.6" y="284.5" class="st5_construction-site-1-2 targetColor" width="52.2" height="40.4" style="fill: rgb(37, 57, 133);"/>
	<path class="st1_construction-site-1-2" d="M123.8,326.7H71.6c-1,0-1.8-0.8-1.8-1.8v-40.4c0-1,0.8-1.8,1.8-1.8h52.2c1,0,1.8,0.8,1.8,1.8v40.4&#10;&#9;&#9;C125.6,325.9,124.8,326.7,123.8,326.7C123.8,326.7,123.8,326.7,123.8,326.7z M73.4,323.1H122v-36.8H73.4V323.1z"/>
	<path class="st5_construction-site-1-2 targetColor" d="M71.6,365.3c0,1.2,177.8,0,177.8,0" style="fill: rgb(37, 57, 133);"/>
	<path class="st1_construction-site-1-2" d="M115.8,367.7c-44.4,0-44.8-0.4-45.5-1.1c-0.3-0.3-0.5-0.8-0.5-1.3c0-1,0.8-1.8,1.8-1.8c0.2,0,0.4,0,0.6,0.1&#10;&#9;&#9;c6.7,0.9,129.9,0.2,177.2-0.1l0,0c1,0,1.8,0.8,1.8,1.8c0,1-0.8,1.8-1.8,1.8c-0.4,0-44.6,0.3-88.4,0.5&#10;&#9;&#9;C142.3,367.6,127.6,367.7,115.8,367.7z M73.4,365.3L73.4,365.3z"/>
	<path class="st5_construction-site-1-2 targetColor" d="M162.5,324.9c-0.3,0,0,40.4,0,40.4" style="fill: rgb(37, 57, 133);"/>
	<path class="st1_construction-site-1-2" d="M162.5,367.1c-1,0-1.8-0.8-1.8-1.8c-0.3-40.9-0.2-41,0.5-41.7c0.3-0.3,0.8-0.5,1.3-0.5c1,0,1.8,0.8,1.8,1.8&#10;&#9;&#9;c0,0.1,0,0.3,0,0.4c-0.2,2.3-0.1,25,0,40C164.4,366.3,163.6,367.1,162.5,367.1C162.6,367.1,162.6,367.1,162.5,367.1L162.5,367.1z"/>
	<path class="st1_construction-site-1-2" d="M123.8,411.8c-1,0-1.8-0.8-1.8-1.8v-44.1c0-1,0.8-1.8,1.8-1.8c1,0,1.8,0.8,1.8,1.8V410&#10;&#9;&#9;C125.6,411,124.8,411.8,123.8,411.8z"/>
	<path class="st7_construction-site-1-2" d="M123.8,317.3c9.4-1.8,19-1.8,28.4,0c15.2,3,30.1,4.2,44.4,2.1s11.5-1.8,22.5-1.2s28.3,2.3,28.3,2.3v4.4H123.8&#10;&#9;&#9;V317.3z"/>
	<path class="st1_construction-site-1-2" d="M247.3,326.7H123.8c-1,0-1.8-0.8-1.8-1.8v-7.6c0-0.8,0.6-1.6,1.4-1.8c9.6-1.9,19.5-1.9,29.2,0&#10;&#9;&#9;c16.6,3.3,30.9,4,43.7,2.1l1.4-0.2c10.8-1.6,11-1.6,17.5-1.2c1.1,0.1,2.4,0.1,3.9,0.2c10.9,0.6,28.2,2.3,28.3,2.3&#10;&#9;&#9;c0.9,0.1,1.6,0.9,1.6,1.8v4.4C249.1,325.9,248.3,326.7,247.3,326.7z M125.6,323.1h119.9v-0.9c-4.6-0.4-17.7-1.6-26.5-2.1&#10;&#9;&#9;c-1.6-0.1-2.8-0.2-3.9-0.2c-6.1-0.4-6.1-0.4-16.8,1.2l-1.4,0.2c-13.2,2-27.9,1.3-45-2.1c-8.7-1.6-17.5-1.7-26.2-0.3L125.6,323.1z"/>
	<path class="st1_construction-site-1-2" d="M335.1,411.8c-1,0-1.8-0.8-1.8-1.8v-44.7c0.1-1,0.9-1.8,1.9-1.7c0.9,0.1,1.6,0.8,1.7,1.7V410&#10;&#9;&#9;C336.9,411,336.1,411.8,335.1,411.8z"/>
</g>
</svg>