<svg id="_0123_process_building" xmlns="http://www.w3.org/2000/svg" xmlns:xlink="http://www.w3.org/1999/xlink" viewBox="0 0 500 500" data-imageid="construction-site-1-26" imageName="Construction Site 1" class="illustrations_image" style="width: 161px;"><defs><style>.cls-1_construction-site-1-26{fill:url(#linear-gradient);}.cls-1_construction-site-1-26,.cls-2_construction-site-1-26,.cls-3_construction-site-1-26,.cls-4_construction-site-1-26,.cls-5_construction-site-1-26,.cls-6_construction-site-1-26,.cls-7_construction-site-1-26,.cls-8_construction-site-1-26,.cls-9_construction-site-1-26,.cls-10_construction-site-1-26,.cls-11_construction-site-1-26,.cls-12_construction-site-1-26{stroke-width:0px;}.cls-2_construction-site-1-26{isolation:isolate;opacity:.18;}.cls-2_construction-site-1-26,.cls-12_construction-site-1-26{fill:#68e1fd;}.cls-3_construction-site-1-26{fill:url(#linear-gradient-4-construction-site-1-26);}.cls-4_construction-site-1-26{fill:url(#linear-gradient-2-construction-site-1-26);}.cls-5_construction-site-1-26{fill:url(#linear-gradient-3-construction-site-1-26);}.cls-6_construction-site-1-26{fill:url(#linear-gradient-7-construction-site-1-26);}.cls-7_construction-site-1-26{fill:url(#linear-gradient-5-construction-site-1-26);}.cls-8_construction-site-1-26{fill:url(#linear-gradient-6-construction-site-1-26);}.cls-9_construction-site-1-26{fill:#231f20;}.cls-10_construction-site-1-26{fill:#fff;}.cls-11_construction-site-1-26{fill:#ffb4a3;}</style><linearGradient id="linear-gradient-construction-site-1-26" x1="794.48" y1="3564.64" x2="812.87" y2="3418.58" gradientTransform="translate(-522.14 3795.09) scale(1 -1)" gradientUnits="userSpaceOnUse"><stop offset="0" stop-color="#231f20" stop-opacity="0"/><stop offset="1" stop-color="#231f20"/></linearGradient><linearGradient id="linear-gradient-2-construction-site-1-26" x1="838.98" y1="3539.76" x2="858.94" y2="3552.42" xlink:href="#linear-gradient-construction-site-1-26"/><linearGradient id="linear-gradient-3-construction-site-1-26" x1="780.45" y1="3594.28" x2="808.34" y2="3571.34" xlink:href="#linear-gradient-construction-site-1-26"/><linearGradient id="linear-gradient-4-construction-site-1-26" x1="-2277.76" y1="4123.64" x2="-2295.03" y2="4114.29" gradientTransform="translate(896.78 4856.44) rotate(21.35) scale(1 -1)" xlink:href="#linear-gradient-construction-site-1-26"/><linearGradient id="linear-gradient-5-construction-site-1-26" x1="840.46" y1="3545.85" x2="850.98" y2="3605.27" gradientTransform="translate(-3312.9 -200.97) rotate(83.5) scale(1 -1)" xlink:href="#linear-gradient-construction-site-1-26"/><linearGradient id="linear-gradient-6-construction-site-1-26" x1="686.55" y1="3616.87" x2="687.52" y2="3651.17" gradientTransform="translate(-471 3866.26) scale(1 -1)" xlink:href="#linear-gradient-construction-site-1-26"/><linearGradient id="linear-gradient-7-construction-site-1-26" x1="524.48" y1="3703.75" x2="498.4" y2="3254.57" gradientTransform="translate(-471 3866.26) scale(1 -1)" xlink:href="#linear-gradient-construction-site-1-26"/></defs><path id="background_construction-site-1-26" class="cls-2_construction-site-1-26 targetColor" d="M109.95,124.68c-14.15,16.21-25.14,35.93-43.37,47.37-12.22,7.72-27.09,11.18-37.8,20.87-21.28,19.3-17.27,53.8-6.81,80.54,28.15,71.92,92.1,128.78,166.82,148.31,74.72,19.53,158.32,1.29,218.07-47.69,21.69-17.77,40.17-39.08,57.89-60.83,13.7-16.83,27.57-35.3,29.47-56.93,2.77-31.34-21.21-59.82-49.44-73.71-28.23-13.88-60.36-16.79-91.34-22.1-12.94-2.21-26.17-5.04-37.1-12.31-34.74-23.16-36.68-70.26-84.14-73.15-45.65-2.82-92,14.9-122.26,49.63Z" style="fill: rgb(37, 57, 133);"/><g id="character_construction-site-1-26"><path class="cls-9_construction-site-1-26" d="M240.55,362.26c-.23,2.96-.44,6.02.59,8.8,1.94,5.23,7.74,8.02,13.25,8.88,2.88.45,5.91.51,8.64-.52,4.74-1.79,7.69-6.45,10.07-10.92,2.38-4.47,4.74-9.3,9.03-11.99,1.74,4.46,3.5,8.96,6.13,12.96,2.63,4,6.23,7.52,10.71,9.22,7.88,2.98,16.83-.21,23.79-4.97,1.11-.76,2.2-1.57,2.99-2.65,2.12-2.9,1.54-6.9.83-10.42-3.84-18.99-8.87-37.73-15.05-56.1-.31-.93-.66-1.91-1.42-2.52-.68-.55-1.58-.72-2.45-.83-2.25-.28-4.52-.24-6.78-.17-12.98.42-25.89,2.05-38.77,3.67-4.47.56-9.53.56-13.83,1.92-3.21,1.02-3.72,3.46-3.97,6.54-.87,10.46-1.6,20.93-2.4,31.39-.45,5.9-.9,11.8-1.35,17.7Z"/><path class="cls-12_construction-site-1-26 targetColor" d="M298.11,202.96c7.83,2.71,13.42,9.74,20.88,13.35,1.04.43,2.03.98,2.96,1.62,2.47,2.07,2.96,5.07,4.98,7.46,2.1,2.49,4.83,4.38,7.37,6.37,3.72,2.92,7.21,6.15,10.41,9.64,2.32,2.53,4.54,5.3,5.51,8.6.96,3.3.4,7.25-2.18,9.51-3.25,2.86-8.19,2.14-12.43,1.25-6-1.26-13.63-4.36-19.75-4.2-7.24.19-3.31,9.32-1.63,13.46,2.47,6.07,3.61,12.6,4.4,19.11,1.01,8.43,1.19,17.82-4.14,24.43-2,2.48-4.64,4.37-7.43,5.92-14.1,7.82-31.21,7-47.3,5.96-3.77-.24-7.81-.59-10.73-2.98-4.62-3.78-4.44-10.75-4.16-16.71.59-12.4-.12-24.85-2.12-37.1-.33-2-.71-4.06-1.84-5.75-4.26-6.37-8.38,2.4-11.43,5.36-1.14,1.1-2.35,2.2-3.83,2.78-1.57.63-3.31.63-5,.63-2.25,0-4.56-.03-6.62-.92-1.54-.67-2.83-1.79-4.1-2.89-.74-.64-1.5-1.31-1.9-2.21-.35-.8-.39-1.69-.39-2.57-.04-4.42.42-8.84,1.36-13.15.69-3.17,1.71-6.41,3.93-8.79,1.77-1.89,4.14-3.08,6.38-4.38,6.43-3.76,12.14-8.77,16.23-14.98,3.57-5.43,9.56-9.52,15.03-12.86,3.34-2.05,7.38-2.34,10.94-3.86,3.55-1.52,5.83-1.43,9.8-1.66,8.86-.63,18.11-3.47,26.81-.46Z" style="fill: rgb(37, 57, 133);"/><path class="cls-1_construction-site-1-26" d="M298.11,202.96c7.83,2.71,13.42,9.74,20.88,13.35,1.04.43,2.03.98,2.96,1.62.8.67,1.5,1.46,2.06,2.34,3.03,4.73,4.76,9.77,5.69,15.3.88,5.25,5.48,8.92,9.08,12.54,3.44,3.45,6.78,7.6,6.86,12.68-1.44.39-2.97.2-4.45,0-6.89-.95-13.76-2.12-20.58-3.5-6.98-1.41-11.7.64-11.09,8.88.29,3.87,1.95,7.47,3.37,11.09,2.09,5.36,3.67,10.93,4.71,16.59,1.11,6.1,1.15,13.42-3.71,17.27-1.73,1.37-3.3,6.86-5.4,7.54-12.93,4.22-13.91,6.08-27.45,7.34-8.24.77-27.17,3.19-32.01-3.52-3.5-4.85-6.83-17.33-6.59-23.3.37-9.22.74-18.43,1.11-27.65.1-2.45.18-5.01-.84-7.25-4.21-9.24-12.01,2.69-16.38,5.06-3.87,2.1-8.51,3.08-12.74,1.86-2.6-.75-5.08-2.45-6.06-4.98-.6-1.53-.61-3.22-.52-4.85.25-4.32,1.18-8.6,2.75-12.63.64-1.63,1.42-3.28,2.78-4.38,1.76-1.42,4.15-1.68,6.4-1.88,1.31-.12,2.76-.2,3.82.59,1.48,1.11,1.44,3.31,1.24,5.16-.34,3.21-.67,6.41-1.01,9.62-.26,2.46-.48,5.1.7,7.27,2.75-3.56,4.4-7.82,6.02-12.02,1.85-4.79,3.71-9.61,4.92-14.61.99-4.07.05-7.77.82-11.86,1.21-6.43,4.3-6.72,9.89-10.14,3.34-2.05,12.6-9.88,16.15-11.45,3.55-1.57,5.83-1.43,9.8-1.66,8.86-.58,18.11-3.42,26.81-.41Z"/><path class="cls-4_construction-site-1-26" d="M330.17,245.65c1.26,1.35,2.42,2.77,3.37,4.34,1.15,1.91,1.95,4,2.98,5.97,1.03,1.97,2.35,3.87,4.23,5.06-2.12.16-4.24-.28-6.32-.73-2.93-.62-5.86-1.25-8.77-1.96-3.61-.88-7.29-1.9-10.98-1.49-1.24.14-2.71.62-3.85.07-1.04-.51-1.94-1.54-2.66-2.42-1.62-1.98-2.82-4.3-3.84-6.63-.64-1.43-1.19-2.9-1.67-4.39,2.47-.78,5.01-1.39,7.55-1.91,2.28-.47,4.57-.86,6.89-1.08,1.05-.1,2.29-.34,3.33-.25,1.31.11,2.77.81,4.03,1.19.63.19,1.26.38,1.84.7.73.4,1.34.98,1.94,1.57.66.65,1.31,1.3,1.94,1.98Z"/><path class="cls-11_construction-site-1-26" d="M272.43,200.26c.91,4.13,1.81,8.57.19,12.48-1.99,4.46-6.76,7.01-11.58,6.18-1.51-.23-2.88-1-3.86-2.17-.49-.69-.85-1.48-1.05-2.3-2.37-8.16,2.11-16.73,10.15-19.45,1.29-.44,3.41-1.29,4.62-.31s1.24,4.26,1.53,5.58Z"/><path class="cls-5_construction-site-1-26" d="M270.67,195.44s-.48,18.47-8.93,20.17-7.85-7.72-7.85-7.72l16.78-12.45Z"/><path class="cls-9_construction-site-1-26" d="M226.51,181.69c.88,4.76,3.72,8.93,7.82,11.49.97-1,1.41-2.41,1.18-3.78-.23-1.35-.57-2.68-.99-3.99-1.09-4.35-.32-8.92-.18-13.39,0-1.29-.09-2.78-1.17-3.46-5.94-3.71-7.18,10.16-6.66,13.14Z"/><path class="cls-11_construction-site-1-26" d="M323.74,211.78c5.82-.35,11.57,1.37,16.24,4.86,1.09.75,2.03,1.7,2.74,2.82.8,1.55,1.14,3.29.99,5.03-.1,5.13-2.62,9.9-6.81,12.87-4.21,2.77-10.29,2.82-14.15-.41-3.86-3.23-4.85-8.35-6.96-12.78-.42-1.07-1.13-2-2.06-2.69-3.67-2.32-6.1-2.3-.85-5.96,3.22-2.19,6.97-3.49,10.86-3.74Z"/><path class="cls-11_construction-site-1-26" d="M243.89,209.82c3,2.89,4.73,4.49,8.9,4.41,7.49-.12,16.21-9.25,17.51-14.76.74-3.43.89-6.96.45-10.43-.77-7.45-3.28-14.95-8.43-20.38-5.15-5.43-13.24-8.43-20.4-6.23-22.55,6.93-8.94,36.86,1.97,47.38Z"/><path class="cls-9_construction-site-1-26" d="M242.74,152.33c-2.09-.04-4.17.28-6.15.93-4.26,1.45-7.56,4.77-10.7,7.99-1.29,1.35-2.75,3.06-2.32,4.9.16.57.42,1.11.77,1.6,1.3,2.32,3.41,4.08,5.92,4.97,1.57.32,3.18.34,4.76.08l14.58-1.49c3.86-.4,10.4-.68,11.41,4.23.18,1.84.23,3.7.13,5.54.06,1.68.6,3.31,1.54,4.71.97,1.37,2.46,2.3,4.12,2.57.77.13,1.56.02,2.26-.32,1.3-.89,2.26-2.19,2.71-3.69.44-2.06.44-4.18,0-6.24-.55-4.84-1.96-9.54-4.16-13.89-1.11-2.03-2.68-2.57-4.55-3.71-1.88-1.13-3.63-2.86-5.61-4.07-4.44-2.69-9.53-4.11-14.72-4.1Z"/><path class="cls-11_construction-site-1-26" d="M267.78,186.43c.22-1.23.6-2.43,1.13-3.56.29-.91.9-1.69,1.71-2.19,1.02-.44,2.21-.24,3.02.51.79.76,1.27,1.78,1.38,2.87.16,2.17-.32,4.33-1.39,6.23-.29.71-.73,1.36-1.29,1.89-.59.53-1.43.68-2.17.4-.6-.39-1.05-.97-1.29-1.65-.84-1.34-1.2-2.93-1.02-4.5"/><path class="cls-3_construction-site-1-26" d="M270.18,188.39c.35-.2.63-.5.81-.86.19-.59-.22-1.29-.24-1.87,0-.49.17-.96.46-1.35.28-.44.76-.87,1.29-.72.33.15.58.42.69.76.59,1.55.49,3.27-.27,4.75-.22.57-.6,1.06-1.09,1.43-.15.11-.33.18-.51.19-.18-.01-.36-.07-.53-.15-.44-.19-1.16-.5-1.35-.98-.3-.68.21-.84.75-1.2Z"/><path class="cls-11_construction-site-1-26" d="M210.47,244.51c1.42.92,3.03,1.5,4.71,1.7,1.46.2,2.93.2,4.39,0,5.35-.75,10.02-4.21,13.37-8.45.36-.41.64-.89.8-1.42.41-1.78-1.6-3.11-3.33-3.68-5.93-1.9-12.31-1.61-18.54-1.29-1.62,0-3.23.27-4.76.82-2.07.9-2.06,1.62-1.54,3.64.82,3.23,1.99,6.68,4.91,8.67Z"/></g><g id="bricks_construction-site-1-26"><rect class="cls-10_construction-site-1-26" x="65.48" y="263.29" width="380.21" height="34.03"/><rect class="cls-10_construction-site-1-26" x="65.48" y="297.69" width="339.31" height="31.2"/><rect class="cls-10_construction-site-1-26" x="56.64" y="327.15" width="385.7" height="31.2"/><rect class="cls-10_construction-site-1-26" x="55.54" y="352.28" width="421.46" height="31.2"/><rect class="cls-12_construction-site-1-26 targetColor" x="100.46" y="237.43" width="72.2" height="25.83" style="fill: rgb(37, 57, 133);"/><rect class="cls-12_construction-site-1-26 targetColor" x="34.42" y="237.43" width="61.46" height="25.83" style="fill: rgb(37, 57, 133);"/><rect class="cls-12_construction-site-1-26 targetColor" x="34.42" y="296.84" width="61.46" height="25.83" style="fill: rgb(37, 57, 133);"/><rect class="cls-12_construction-site-1-26 targetColor" x="34.42" y="356.24" width="61.46" height="25.83" style="fill: rgb(37, 57, 133);"/><rect class="cls-12_construction-site-1-26 targetColor" x="140.07" y="267.86" width="72.2" height="25.83" style="fill: rgb(37, 57, 133);"/><rect class="cls-12_construction-site-1-26 targetColor" x="62.31" y="267.86" width="72.2" height="25.83" style="fill: rgb(37, 57, 133);"/><rect class="cls-12_construction-site-1-26 targetColor" x="216.37" y="267.86" width="72.2" height="25.83" style="fill: rgb(37, 57, 133);"/><rect class="cls-12_construction-site-1-26 targetColor" x="293.66" y="267.86" width="72.2" height="25.83" style="fill: rgb(37, 57, 133);"/><rect class="cls-12_construction-site-1-26 targetColor" x="308.17" y="197.57" width="25.83" height="72.2" transform="translate(52.57 526.24) rotate(-83.5)" style="fill: rgb(37, 57, 133);"/><rect class="cls-7_construction-site-1-26" x="308.17" y="197.57" width="25.83" height="72.2" transform="translate(52.57 526.24) rotate(-83.5)"/><rect class="cls-12_construction-site-1-26 targetColor" x="369.96" y="267.86" width="72.2" height="25.83" style="fill: rgb(37, 57, 133);"/><rect class="cls-12_construction-site-1-26 targetColor" x="140.07" y="326.54" width="72.2" height="25.83" style="fill: rgb(37, 57, 133);"/><rect class="cls-12_construction-site-1-26 targetColor" x="62.31" y="326.54" width="72.2" height="25.83" style="fill: rgb(37, 57, 133);"/><rect class="cls-12_construction-site-1-26 targetColor" x="216.37" y="326.54" width="72.2" height="25.83" style="fill: rgb(37, 57, 133);"/><rect class="cls-12_construction-site-1-26 targetColor" x="293.66" y="326.54" width="72.2" height="25.83" style="fill: rgb(37, 57, 133);"/><rect class="cls-12_construction-site-1-26 targetColor" x="369.96" y="326.54" width="72.2" height="25.83" style="fill: rgb(37, 57, 133);"/><rect class="cls-12_construction-site-1-26 targetColor" x="179.42" y="237.43" width="72.2" height="25.83" style="fill: rgb(37, 57, 133);"/><rect class="cls-8_construction-site-1-26" x="179.42" y="237.43" width="72.2" height="25.83"/><rect class="cls-12_construction-site-1-26 targetColor" x="100.46" y="297.56" width="72.2" height="25.83" style="fill: rgb(37, 57, 133);"/><rect class="cls-12_construction-site-1-26 targetColor" x="176.89" y="297.56" width="72.2" height="25.83" style="fill: rgb(37, 57, 133);"/><rect class="cls-12_construction-site-1-26 targetColor" x="252.96" y="297.56" width="72.2" height="25.83" style="fill: rgb(37, 57, 133);"/><rect class="cls-12_construction-site-1-26 targetColor" x="328.68" y="297.56" width="72.2" height="25.83" style="fill: rgb(37, 57, 133);"/><rect class="cls-12_construction-site-1-26 targetColor" x="100.46" y="357.7" width="72.2" height="25.83" style="fill: rgb(37, 57, 133);"/><rect class="cls-12_construction-site-1-26 targetColor" x="176.89" y="357.7" width="72.2" height="25.83" style="fill: rgb(37, 57, 133);"/><rect class="cls-12_construction-site-1-26 targetColor" x="252.96" y="357.7" width="72.2" height="25.83" style="fill: rgb(37, 57, 133);"/><rect class="cls-12_construction-site-1-26 targetColor" x="328.68" y="357.7" width="72.2" height="25.83" style="fill: rgb(37, 57, 133);"/><rect class="cls-12_construction-site-1-26 targetColor" x="404.74" y="357.7" width="72.2" height="25.83" style="fill: rgb(37, 57, 133);"/><rect class="cls-12_construction-site-1-26 targetColor" x="362.96" y="237.43" width="72.2" height="25.83" style="fill: rgb(37, 57, 133);"/><rect class="cls-12_construction-site-1-26 targetColor" x="28.5" y="178.75" width="36.23" height="203.83" style="fill: rgb(37, 57, 133);"/><rect class="cls-6_construction-site-1-26" x="28.5" y="178.75" width="36.23" height="203.83"/></g></svg>