<svg id="_0168_under_constructions_1" xmlns="http://www.w3.org/2000/svg" viewBox="0 0 500 500" data-imageid="under-constructions-1-28" imageName="Under Constructions 1" class="illustrations_image" style="width: 161px;"><defs><style>.cls-1_under-constructions-1-28{fill:#fff;}.cls-2_under-constructions-1-28{opacity:.46;}.cls-2_under-constructions-1-28,.cls-3_under-constructions-1-28,.cls-4_under-constructions-1-28,.cls-5_under-constructions-1-28,.cls-6_under-constructions-1-28{fill:none;}.cls-7_under-constructions-1-28{fill:#a5a5a5;}.cls-8_under-constructions-1-28{fill:#e6e6e6;}.cls-3_under-constructions-1-28{opacity:.03;}.cls-4_under-constructions-1-28{opacity:.08;}.cls-5_under-constructions-1-28{opacity:.31;}.cls-6_under-constructions-1-28{opacity:.3;}.cls-9_under-constructions-1-28{fill:#24285b;}.cls-10_under-constructions-1-28{fill:#000001;}.cls-11_under-constructions-1-28{fill:#ffd200;}.cls-12_under-constructions-1-28{fill:#68e1fd;}</style></defs><g id="bg_under-constructions-1-28"><g class="cls-3_under-constructions-1-28"><ellipse class="cls-10_under-constructions-1-28" cx="238.72" cy="407.21" rx="203.58" ry="26.16"/></g><g class="cls-6_under-constructions-1-28"><path class="cls-8_under-constructions-1-28" d="m169.68,96.56c-59.94,15.07-107.32,62.65-121.21,123.85-10.34,45.54-1.27,92.5,68.27,109.57,150.34,36.92,312.73,24.74,332.19-49.1,19.46-73.84-16.65-200.52-102.61-208.35-48.95-4.46-122.43,10.4-176.63,24.02Z"/></g><path class="cls-8_under-constructions-1-28" d="m100.19,220.01c0-6.3-5.11-11.41-11.41-11.41-.63,0-1.23.06-1.83.16-2.6-4.82-7.69-8.1-13.55-8.1-.19,0-.37.02-.56.03.35-1.42.56-2.9.56-4.43,0-10.08-8.17-18.26-18.26-18.26s-18.26,8.17-18.26,18.26c0,1.53.21,3.01.56,4.43-.19,0-.37-.03-.56-.03-8.49,0-15.38,6.89-15.38,15.38s6.89,15.38,15.38,15.38h53.38v-.11c5.59-.73,9.92-5.5,9.92-11.31Z"/><path class="cls-8_under-constructions-1-28" d="m482.89,209.12c0-5.56-4.51-10.07-10.07-10.07-.55,0-1.09.06-1.62.14-2.29-4.25-6.78-7.15-11.95-7.15-.17,0-.33.02-.5.03.31-1.25.5-2.56.5-3.9,0-8.9-7.21-16.11-16.11-16.11s-16.11,7.21-16.11,16.11c0,1.35.18,2.65.5,3.9-.17,0-.33-.03-.5-.03-7.49,0-13.57,6.08-13.57,13.57s6.08,13.57,13.57,13.57h47.1v-.09c4.93-.64,8.76-4.86,8.76-9.97Z"/><path class="cls-8_under-constructions-1-28" d="m279.33,78.78c0-6.5-5.27-11.78-11.78-11.78-.65,0-1.27.07-1.89.17-2.68-4.98-7.93-8.36-13.98-8.36-.2,0-.39.02-.58.03.37-1.46.58-2.99.58-4.57,0-10.41-8.44-18.84-18.84-18.84s-18.84,8.44-18.84,18.84c0,1.58.22,3.1.58,4.57-.19,0-.38-.03-.58-.03-8.77,0-15.87,7.11-15.87,15.87s7.11,15.87,15.87,15.87h55.09v-.11c5.77-.75,10.24-5.68,10.24-11.67Z"/></g><g id="scope_under-constructions-1-28"><rect class="cls-8_under-constructions-1-28" x="405.62" y="274.01" width="9.3" height="127.26" transform="translate(106.48 -98.29) rotate(15.67)"/><path class="cls-7_under-constructions-1-28" d="m436.34,282.35c-.69,0-1.39-.09-2.09-.29l-15.02-4.21c-4.11-1.16-6.52-5.44-5.37-9.55l3.03-10.8c1.15-4.11,5.44-6.52,9.55-5.37l15.02,4.22c1.99.56,3.65,1.86,4.66,3.66,1.01,1.8,1.26,3.9.7,5.89l-3.03,10.8c-.96,3.42-4.08,5.66-7.46,5.66Zm-.79-4.93c1.55.44,3.17-.47,3.61-2.03l3.03-10.8c.21-.75.12-1.54-.27-2.22-.38-.68-1.01-1.17-1.76-1.38l-15.02-4.22c-1.55-.43-3.17.47-3.61,2.03l-3.03,10.8c-.44,1.55.47,3.17,2.03,3.61l15.02,4.21Z"/><path class="cls-7_under-constructions-1-28" d="m414.81,406.13l7.48-26.65-44.57-12.51-7.82,27.86c-1.07,3.82-1.12,7.68-.3,11.3h45.22Z"/></g><g id="cone_under-constructions-1-28"><path class="cls-12_under-constructions-1-28 targetColor" d="m69.01,399.2l20.06-91.88c.93-4.27,7-4.31,7.99-.06l21.8,93.45-49.85-1.52Z" style="fill: rgb(37, 57, 133);"/><rect class="cls-12_under-constructions-1-28 targetColor" x="62.33" y="390.33" width="62.66" height="15.39" rx="4.42" ry="4.42" style="fill: rgb(37, 57, 133);"/><g class="cls-2_under-constructions-1-28"><rect class="cls-1_under-constructions-1-28" x="62.33" y="390.33" width="62.66" height="15.39" rx="4.42" ry="4.42"/></g><g class="cls-4_under-constructions-1-28"><polygon class="cls-10_under-constructions-1-28" points="81.63 341.39 103.03 332.82 109.27 359.58 75.63 368.88 81.63 341.39"/></g><path class="cls-8_under-constructions-1-28" d="m72.84,407.21s9.11-13.1-4.48-16.71c-13.59-3.61,3.28-21.26-9.38-23.58-12.65-2.32-10.54,16.36-10.54,16.36,0,0-8.74-7.53-14.76-1.2-6.02,6.33,2.41,13.26,2.41,13.26,0,0-12.17,4.2-4.58,11.89h41.33Z"/><path class="cls-7_under-constructions-1-28" d="m54.56,408.96s5.79-9.9,14.32-8.68c8.53,1.22,7.62,8.68,7.62,8.68h-21.93Z"/></g><g id="mtc_under-constructions-1-28"><rect class="cls-12_under-constructions-1-28 targetColor" x="156.12" y="136.21" width="28.31" height="269.08" style="fill: rgb(37, 57, 133);"/><rect class="cls-12_under-constructions-1-28 targetColor" x="309.07" y="136.21" width="28.31" height="269.08" style="fill: rgb(37, 57, 133);"/><g class="cls-4_under-constructions-1-28"><rect class="cls-10_under-constructions-1-28" x="156.12" y="136.21" width="28.31" height="269.08"/></g><g class="cls-4_under-constructions-1-28"><rect class="cls-10_under-constructions-1-28" x="309.07" y="136.21" width="28.31" height="269.08"/></g><rect class="cls-12_under-constructions-1-28 targetColor" x="122.62" y="169.62" width="248.37" height="87.61" style="fill: rgb(37, 57, 133);"/><polygon class="cls-9_under-constructions-1-28" points="135.22 169.62 164.89 257.24 205.95 257.24 172.21 169.62 135.22 169.62"/><polygon class="cls-9_under-constructions-1-28" points="211.23 169.62 240.91 257.24 281.97 257.24 248.23 169.62 211.23 169.62"/><polygon class="cls-9_under-constructions-1-28" points="287.02 169.62 316.7 257.24 357.75 257.24 324.01 169.62 287.02 169.62"/><rect class="cls-12_under-constructions-1-28 targetColor" x="122.62" y="290.42" width="248.37" height="41.07" style="fill: rgb(37, 57, 133);"/><path class="cls-11_under-constructions-1-28" d="m301.86,168.44l85.1,43.02c3.04,1.54,6.37-1.49,5.13-4.66l-1.79-4.58c-2.02-5.18-1.98-10.93.02-16.12,5.45-14.11,13.51-44.47-9.1-61.52-28.94-21.82-73.7-19.7-84.22,33.82-.8,4.06,1.17,8.17,4.86,10.04Z"/><g class="cls-4_under-constructions-1-28"><polygon class="cls-10_under-constructions-1-28" points="304.19 169.62 370.99 234.08 370.99 203.39 304.19 169.62"/></g><g class="cls-5_under-constructions-1-28"><path class="cls-1_under-constructions-1-28" d="m314.07,136.74c5.17-7.21,15.6-17.97,32.02-18.42,3.01-.08,4.16,3.92,1.55,5.43-6.73,3.89-16.01,10.54-23.16,20.56-1.8,2.52-5.2,3.32-7.99,1.96h0c-3.58-1.74-4.75-6.29-2.43-9.53Z"/></g></g></svg>